<svg xmlns="http://www.w3.org/2000/svg" style="display: none;"><symbol viewBox="0 0 12 8" id="icon-arrow-black"><title>arrow-black</title><path d="M11.096 4.354a.5.5 0 0 0 0-.708L7.914.464a.5.5 0 1 0-.707.708L10.035 4 7.207 6.828a.5.5 0 1 0 .707.708l3.182-3.182zM.984 4.5h9.758v-1H.984v1z"/></symbol><symbol viewBox="0 0 10 6" id="icon-arrow-gray"><title>arrow-gray</title><path stroke="#858C95" stroke-linecap="round" stroke-linejoin="round" d="M.707 1L5 5.293M9.293 1L5 5.293"/></symbol><symbol viewBox="0 0 11 8" id="icon-arrow-green"><title>arrow-green</title><path d="M10.112 4.354a.5.5 0 0 0 0-.708L6.93.464a.5.5 0 0 0-.707.708L9.05 4 6.223 6.828a.5.5 0 1 0 .707.708l3.182-3.182zM0 4.5h9.758v-1H0v1z" fill="#009DAA"/></symbol><symbol viewBox="0 0 12 8" id="icon-arrow-right-gray"><title>arrow-right-gray</title><path opacity=".7" d="M11.354 4.354a.5.5 0 0 0 0-.708L8.172.464a.5.5 0 1 0-.708.708L10.293 4 7.464 6.828a.5.5 0 1 0 .708.708l3.182-3.182zM0 4.5h11v-1H0v1z" fill="#000"/></symbol><symbol viewBox="0 0 12 8" id="icon-arrow-white"><title>arrow-white</title><path d="M11.095 4.104a.5.5 0 0 0 0-.708L7.914.214a.5.5 0 1 0-.708.708l2.829 2.828-2.829 2.828a.5.5 0 0 0 .708.708l3.181-3.182zM.984 4.25h9.758v-1H.984v1z" fill="#fff"/></symbol><symbol viewBox="0 0 16 19" id="icon-calendar-gray"><title>calendar-gray</title><path fill="#D9DCE0" d="M0 8h16v11H0zM0 3h16v4H0z"/><path fill="#D9DCE0" d="M3 0h2v5H3zM11 0h2v5h-2z"/></symbol><symbol viewBox="0 0 16 19" id="icon-calendar-green"><title>calendar-green</title><path fill="#00848C" d="M0 8h16v11H0zM0 3h16v4H0z"/><path fill="#00848C" d="M3 0h2v5H3zM11 0h2v5h-2z"/></symbol><symbol viewBox="0 0 28 28" id="icon-close-gray"><title>close-gray</title><path stroke="#AAA" stroke-linecap="round" stroke-linejoin="round" d="M7.168 7.538l13.293 13.293M7.539 20.831L20.832 7.538"/></symbol><symbol viewBox="0 0 36 36" id="icon-close-white"><title>close-white</title><path stroke="#fff" stroke-width="3" stroke-linecap="round" d="M26 10.332L10.333 25.999M25.246 25.999L9.579 10.332"/></symbol><symbol viewBox="0 0 19 19" id="icon-close"><title>close</title><rect x="1.979" width="24" height="2" rx="1" transform="rotate(45 1.98 0)" fill="#000"/><rect x="18.95" y="1.414" width="24" height="2" rx="1" transform="rotate(135 18.95 1.414)" fill="#000"/></symbol><symbol viewBox="0 0 13 13" id="icon-cross"><title>cross</title><path stroke="#000" stroke-linecap="round" stroke-linejoin="round" d="M6.5.5v12M.5 6.5h12"/></symbol><symbol viewBox="0 0 30 30" id="icon-dzen"><title>dzen</title><path opacity=".4" d="M.5.49h29v29H.5v-29z" stroke="#C4C4C4"/><path d="M16.543 16.543c-1.257 1.297-1.349 2.914-1.457 6.457 3.303 0 5.583-.011 6.76-1.154C22.989 20.669 23 18.28 23 15.086c-3.543.114-5.16.2-6.457 1.457zM7 15.086c0 3.194.011 5.583 1.154 6.76C9.331 22.989 11.611 23 14.914 23c-.114-3.543-.2-5.16-1.457-6.457-1.297-1.257-2.914-1.349-6.457-1.457zM14.914 7c-3.297 0-5.583.011-6.76 1.154C7.011 9.331 7 11.72 7 14.914c3.543-.114 5.16-.2 6.457-1.457 1.257-1.297 1.349-2.914 1.457-6.457zm1.629 6.457C15.286 12.16 15.194 10.543 15.086 7c3.303 0 5.583.011 6.76 1.154C22.989 9.331 23 11.72 23 14.914c-3.543-.114-5.16-.2-6.457-1.457z" fill="#fff"/></symbol><symbol viewBox="0 0 22 22" id="icon-exclusive"><title>exclusive</title><path fill="#042F60" d="M0 0h22v22H0z"/><path d="M18.72 10c0-2.6-1.68-4.08-3.56-4.08-1.72 0-3.16 1.44-3.16 3.2C12 10.8 13.2 12 14.72 12c.32 0 .64-.08.8-.16-.36 1.44-1.84 3.12-3.12 3.8l2.2 1.8c2.48-1.76 4.12-4.44 4.12-7.44zm-8.12 0c0-2.6-1.72-4.08-3.6-4.08-1.68 0-3.12 1.44-3.12 3.2C3.88 10.8 5.08 12 6.6 12c.28 0 .64-.08.76-.16-.32 1.44-1.8 3.12-3.08 3.8l2.2 1.8C8.92 15.68 10.6 13 10.6 10z" fill="#fff"/></symbol><symbol viewBox="0 0 43 38" id="icon-facebook-icon-sm"><title>facebook-icon-sm</title><path fill="#405A94" d="M0 0h43v38H0z"/><path d="M22.663 14.147c-.247 0-.618.36-.618.96v1.917h3.46v2.756h-3.46v8.39h-3.337v-8.39h-2.966v-2.756h2.966v-1.678c0-2.397 1.73-4.315 4.079-4.315h2.842v2.996h-2.966v.12z" fill="#fff"/></symbol><symbol viewBox="0 0 82 41" id="icon-facebook-icon"><title>facebook-icon</title><path fill="#405A94" d="M0 0h81.697v40.848H0z"/><path d="M43.526 14.228c-.307 0-.766.46-.766 1.224V17.9h4.284v3.519h-4.283v10.709H38.63v-10.71h-3.672V17.9h3.672v-2.142c0-3.06 2.142-5.508 5.048-5.508h3.52v3.825h-3.672v.153z" fill="#fff"/></symbol><symbol viewBox="0 0 30 30" id="icon-fb-blue"><title>fb-blue</title><path opacity=".4" stroke="#042F60" d="M.5.5h29v29H.5z"/><path d="M16.966 10.101c-.224 0-.561.326-.561.87v1.737h3.146v2.498h-3.146v7.603H13.37v-7.603h-2.697v-2.498h2.697v-1.52c0-2.173 1.573-3.91 3.708-3.91h2.584v2.715h-2.697v.108z" fill="#042F60"/></symbol><symbol viewBox="0 0 30 30" id="icon-fb"><title>fb</title><path opacity=".4" stroke="#C4C4C4" d="M.5.5h29v29H.5z"/><path d="M16.322 11.132c-.203 0-.507.295-.507.786v1.57h2.84v2.26h-2.84v6.873h-2.74v-6.873H10.64v-2.26h2.435v-1.374c0-1.964 1.42-3.535 3.348-3.535h2.334v2.455h-2.435v.098z" fill="#fff"/></symbol><symbol viewBox="0 0 27 27" id="icon-find-white"><title>find-white</title><circle cx="11.872" cy="11.88" r="6.95" transform="rotate(-45 11.872 11.88)" stroke="#fff" stroke-width="2"/><rect x="15.406" y="16.83" width="2" height="7" rx="1" transform="rotate(-45 15.406 16.83)" fill="#fff"/></symbol><symbol viewBox="0 0 27 27" id="icon-find"><title>find</title><circle cx="11.876" cy="11.879" r="6.95" transform="rotate(-45 11.876 11.879)" stroke="currentColor" stroke-width="2"/><rect x="15.412" y="16.828" width="2" height="7" rx="1" transform="rotate(-45 15.412 16.828)" fill="currentColor"/></symbol><symbol viewBox="0 0 11.451 12.504" id="icon-flag"><title>flag</title><path stroke-linecap="round" stroke-linejoin="round" stroke-miterlimit="10" d="M.823 1.659L4.475 11.84"/><path d="M1.006 2.119S2.86.606 4.475.769c1.614.164 3.206 1.311 4.354.89C9.975 1.238 10.654.98 10.654.98v6.04s-.89.771-3.044.35c-2.152-.42-4.344 1.099-4.344 1.099l-2.26-6.35z" stroke-miterlimit="10"/></symbol><symbol viewBox="0 0 15 8" id="icon-group-arrow-blue"><title>group-arrow-blue</title><path transform="rotate(44.98 -.958 1.104)" stroke="#042F60" stroke-linecap="round" stroke-linejoin="round" d="M.5-.5h8.9"/><path transform="matrix(-.70735 .70687 .70735 .70687 14.5 1)" stroke="#042F60" stroke-linecap="round" stroke-linejoin="round" d="M.5-.5h8.9"/></symbol><symbol viewBox="0 0 15 8" id="icon-group-arrow-white"><title>group-arrow-white</title><path transform="rotate(44.98 -.958 1.104)" stroke="#fff" stroke-linecap="round" stroke-linejoin="round" d="M.5-.5h8.9"/><path transform="matrix(-.70735 .70687 .70735 .70687 14.5 1)" stroke="#fff" stroke-linecap="round" stroke-linejoin="round" d="M.5-.5h8.9"/></symbol><symbol viewBox="0 0 15 8" id="icon-group-arrow"><title>group-arrow</title><path transform="rotate(44.98 -.958 1.104)" stroke="#000" stroke-linecap="round" stroke-linejoin="round" d="M.5-.5h8.9"/><path transform="matrix(-.70735 .70687 .70735 .70687 14.5 1)" stroke="#000" stroke-linecap="round" stroke-linejoin="round" d="M.5-.5h8.9"/></symbol><symbol viewBox="0 0 22 23" id="icon-icon-star-square"><title>icon-star-square</title><path d="M0 .31h22v22H0v-22z" fill="#042F60"/><path d="M11 5l1.854 3.95L17 9.587l-3 3.072.708 4.341L11 14.95 7.292 17 8 12.66 5 9.586l4.146-.637L11 5z" fill="#fff"/></symbol><symbol viewBox="0 0 30 30" id="icon-instagram-blue"><title>instagram-blue</title><path opacity=".4" stroke="#042F60" d="M.5.5h29v29H.5z"/><path d="M15 8.44c2.142 0 2.388.012 3.237.05.775.036 1.206.16 1.49.27.368.148.64.32.922.603.283.283.456.542.603.923.111.283.247.702.271 1.49.037.849.05 1.095.05 3.236 0 2.142-.013 2.388-.05 3.237-.037.776-.16 1.206-.27 1.49-.148.369-.32.64-.604.922a2.454 2.454 0 0 1-.923.604c-.283.11-.701.246-1.49.27-.848.037-1.095.05-3.236.05-2.142 0-2.388-.013-3.237-.05-.775-.037-1.206-.16-1.49-.27-.368-.148-.64-.32-.922-.604a2.455 2.455 0 0 1-.603-.923c-.111-.283-.246-.701-.271-1.489-.037-.849-.05-1.095-.05-3.237 0-2.141.013-2.387.05-3.237.037-.775.16-1.206.27-1.489.148-.37.32-.64.604-.923.283-.283.541-.455.923-.603.283-.11.701-.246 1.49-.27.848-.038 1.107-.05 3.236-.05zM15 7c-2.178 0-2.45.012-3.299.05-.849.036-1.44.172-1.944.368-.53.21-.972.48-1.415.924a3.961 3.961 0 0 0-.924 1.415c-.196.505-.332 1.095-.369 1.944C7.012 12.551 7 12.834 7 15c0 2.178.012 2.45.05 3.299.036.849.172 1.44.368 1.944.21.53.48.972.924 1.416.443.443.886.713 1.415.922.505.198 1.095.333 1.944.37.85.037 1.133.049 3.299.049 2.178 0 2.45-.012 3.299-.05.849-.036 1.44-.171 1.944-.369.53-.209.972-.48 1.416-.922.443-.444.713-.887.922-1.416.198-.505.333-1.095.37-1.944.037-.85.049-1.133.049-3.299s-.012-2.45-.05-3.299c-.036-.849-.171-1.44-.369-1.944-.209-.53-.48-.972-.922-1.415a3.962 3.962 0 0 0-1.416-.924c-.505-.196-1.095-.332-1.944-.369C17.448 7.012 17.178 7 15 7z" fill="#042F60"/><path d="M15 10.902a4.11 4.11 0 1 0-.001 8.22 4.11 4.11 0 0 0 0-8.22zm0 6.781a2.668 2.668 0 0 1-2.67-2.67A2.668 2.668 0 0 1 15 12.341a2.668 2.668 0 0 1 2.67 2.67A2.668 2.668 0 0 1 15 17.683zM19.283 11.69a.96.96 0 1 0 0-1.92.96.96 0 0 0 0 1.92z" fill="#042F60"/></symbol><symbol viewBox="0 0 30 30" id="icon-instagram"><title>instagram</title><path opacity=".4" stroke="#C4C4C4" d="M.5.5h29v29H.5z"/><path d="M15 9.44c2.142 0 2.388.012 3.237.05.775.036 1.206.16 1.49.27.368.148.64.32.922.603.283.283.456.542.603.923.111.283.247.702.271 1.49.037.849.05 1.095.05 3.236 0 2.142-.013 2.388-.05 3.237-.037.776-.16 1.206-.27 1.49-.148.369-.32.64-.604.922a2.454 2.454 0 0 1-.923.604c-.283.11-.701.246-1.49.27-.848.037-1.095.05-3.236.05-2.142 0-2.388-.013-3.237-.05-.775-.037-1.206-.16-1.49-.27-.368-.148-.64-.32-.922-.604a2.455 2.455 0 0 1-.603-.923c-.111-.283-.246-.701-.271-1.489-.037-.849-.05-1.095-.05-3.237 0-2.141.013-2.387.05-3.237.037-.775.16-1.206.27-1.489.148-.37.32-.64.604-.923.283-.283.541-.455.923-.603.283-.11.701-.246 1.49-.27.848-.038 1.107-.05 3.236-.05zM15 8c-2.178 0-2.45.012-3.299.05-.849.036-1.44.172-1.944.368-.53.21-.972.48-1.415.924a3.961 3.961 0 0 0-.924 1.415c-.196.505-.332 1.095-.369 1.944C7.012 13.551 7 13.834 7 16c0 2.178.012 2.45.05 3.299.036.849.172 1.44.368 1.944.21.53.48.972.924 1.416.443.443.886.713 1.415.922.505.198 1.095.333 1.944.37.85.037 1.133.049 3.299.049 2.178 0 2.45-.012 3.299-.05.849-.036 1.44-.171 1.944-.369.53-.209.972-.48 1.416-.922.443-.444.713-.887.922-1.416.198-.505.333-1.095.37-1.944.037-.85.049-1.133.049-3.299s-.012-2.45-.05-3.299c-.036-.849-.171-1.44-.369-1.944-.209-.53-.48-.972-.922-1.415a3.962 3.962 0 0 0-1.416-.924c-.505-.196-1.095-.332-1.944-.369C17.448 8.012 17.178 8 15 8z" fill="#fff"/><path d="M15 11.902a4.11 4.11 0 1 0-.001 8.22 4.11 4.11 0 0 0 0-8.22zm0 6.781a2.668 2.668 0 0 1-2.67-2.67A2.668 2.668 0 0 1 15 13.341a2.668 2.668 0 0 1 2.67 2.67A2.668 2.668 0 0 1 15 18.683zM19.283 12.69a.96.96 0 1 0 0-1.92.96.96 0 0 0 0 1.92z" fill="#fff"/></symbol><symbol viewBox="0 0 160 43" id="icon-logo-graf"><title>logo-graf</title><path d="M56.07 9.58h9.66c1.34 0 2.48.2 3.42.6.94.38 1.7.89 2.28 1.53.6.64 1.03 1.38 1.29 2.22a7.837 7.837 0 0 1 0 5.07c-.26.82-.69 1.55-1.29 2.19-.58.64-1.34 1.16-2.28 1.56-.94.38-2.08.57-3.42.57h-4.95V31h-4.71V9.58zm8.37 10.08c.54 0 1.06-.04 1.56-.12.5-.08.94-.23 1.32-.45.38-.24.68-.57.9-.99.24-.42.36-.97.36-1.65 0-.68-.12-1.23-.36-1.65-.22-.42-.52-.74-.9-.96-.38-.24-.82-.4-1.32-.48-.5-.08-1.02-.12-1.56-.12h-3.66v6.42h3.66zm18.42 11.73c-1.22 0-2.32-.19-3.3-.57a7.19 7.19 0 0 1-2.52-1.62c-.7-.72-1.24-1.58-1.62-2.58-.38-1-.57-2.12-.57-3.36 0-1.24.19-2.36.57-3.36.38-1.02.92-1.88 1.62-2.58.7-.72 1.54-1.27 2.52-1.65.98-.4 2.08-.6 3.3-.6 1.22 0 2.32.2 3.3.6 1 .38 1.85.93 2.55 1.65.7.7 1.24 1.56 1.62 2.58.38 1 .57 2.12.57 3.36 0 1.24-.19 2.36-.57 3.36-.38 1-.92 1.86-1.62 2.58-.7.7-1.55 1.24-2.55 1.62-.98.38-2.08.57-3.3.57zm0-3.18c.72 0 1.32-.14 1.8-.42.5-.28.89-.65 1.17-1.11.3-.48.51-1.01.63-1.59.12-.6.18-1.21.18-1.83 0-.62-.06-1.23-.18-1.83-.12-.6-.33-1.13-.63-1.59-.28-.46-.67-.83-1.17-1.11-.48-.3-1.08-.45-1.8-.45s-1.32.15-1.8.45c-.48.28-.87.65-1.17 1.11-.28.46-.48.99-.6 1.59-.12.6-.18 1.21-.18 1.83 0 .62.06 1.23.18 1.83.12.58.32 1.11.6 1.59.3.46.69.83 1.17 1.11.48.28 1.08.42 1.8.42zm17.86 3.18c-1.18 0-2.25-.19-3.21-.57-.96-.4-1.78-.95-2.46-1.65a7.48 7.48 0 0 1-1.59-2.49c-.38-.98-.57-2.05-.57-3.21 0-1.2.17-2.31.51-3.33.36-1.04.88-1.93 1.56-2.67.68-.76 1.51-1.35 2.49-1.77.98-.42 2.1-.63 3.36-.63.92 0 1.8.12 2.64.36.86.24 1.62.61 2.28 1.11a5.58 5.58 0 0 1 1.65 1.83c.42.74.66 1.6.72 2.58h-4.17c-.28-1.78-1.33-2.67-3.15-2.67-.68 0-1.25.16-1.71.48-.46.3-.84.7-1.14 1.2-.28.48-.48 1.02-.6 1.62-.12.6-.18 1.18-.18 1.74s.06 1.13.18 1.71c.12.58.31 1.11.57 1.59.28.46.65.84 1.11 1.14.46.3 1.02.45 1.68.45 1.02 0 1.8-.28 2.34-.84.56-.58.91-1.35 1.05-2.31h4.11c-.28 2.06-1.08 3.63-2.4 4.71-1.32 1.08-3.01 1.62-5.07 1.62zm16.926 0c-1.18 0-2.25-.19-3.21-.57-.96-.4-1.78-.95-2.46-1.65a7.48 7.48 0 0 1-1.59-2.49c-.38-.98-.57-2.05-.57-3.21 0-1.2.17-2.31.51-3.33.36-1.04.88-1.93 1.56-2.67.68-.76 1.51-1.35 2.49-1.77.98-.42 2.1-.63 3.36-.63.92 0 1.8.12 2.64.36.86.24 1.62.61 2.28 1.11a5.58 5.58 0 0 1 1.65 1.83c.42.74.66 1.6.72 2.58h-4.17c-.28-1.78-1.33-2.67-3.15-2.67-.68 0-1.25.16-1.71.48-.46.3-.84.7-1.14 1.2-.28.48-.48 1.02-.6 1.62-.12.6-.18 1.18-.18 1.74s.06 1.13.18 1.71c.12.58.31 1.11.57 1.59.28.46.65.84 1.11 1.14.46.3 1.02.45 1.68.45 1.02 0 1.8-.28 2.34-.84.56-.58.91-1.35 1.05-2.31h4.11c-.28 2.06-1.08 3.63-2.4 4.71-1.32 1.08-3.01 1.62-5.07 1.62zm9.577-15.9h4.08v10.5l5.85-10.5h4.83V31h-4.08V20.5l-5.85 10.5h-4.83V15.49zm20.988 9.69c-1.1-.18-2-.71-2.7-1.59-.68-.88-1.02-1.96-1.02-3.24 0-.68.12-1.31.36-1.89a4.744 4.744 0 0 1 2.7-2.58c.62-.26 1.31-.39 2.07-.39h9.39V31h-4.26v-5.46h-2.01l-4.23 5.46h-5.22l4.92-5.82zm6.54-6.6h-3.39c-.98 0-1.65.18-2.01.54-.36.34-.54.8-.54 1.38 0 .6.17 1.08.51 1.44.36.36 1.04.54 2.04.54h3.39v-3.9z" fill="#042F60"/><path d="M0 21.5C0 33.386 9.614 43 21.5 43S43 33.386 43 21.5 33.386 0 21.5 0 0 9.614 0 21.5z" fill="#009CA6"/><path d="M26.723 18.964h2.953l.719-1.78h-.416-2.763c-.493 0-.38-.567-.341-.68 1.249-4.694 2.309-6.095 4.012-6.019.757.038 1.06.19 1.476.606.341.34.341.53.909-.454.681-1.136.719-1.212.908-1.552.152-.228.492-.606-.151-.606-8.063-.151-8.176 2.952-10.977 8.176-.303.492-.606.492-1.552.492h-2.044c-1.098 0-2.612.152-3.823 1.022-.909.681-2.271 2.006-2.271 4.24 0 1.287.605 2.611 1.173 3.217.643.72 1.06 1.06 1.628 1.325.189.075.227.075.265.038a.824.824 0 0 0 .302-.19c1.363-1.21 1.439-1.287 1.969-1.703.227-.19.037-.303-.19-.34-1.06-.076-1.74-.38-2.157-.796-.53-.53-.644-1.06-.681-1.59-.114-1.324.908-2.46 1.816-2.952.53-.303 1.25-.454 2.234-.454 1.4 0 1.779.038 1.968.227.19.19.34.34.114.909-1.325 3.33-1.893 5.147-4.43 9.463-1.248 2.157-3.557 3.558-6.775 2.536-.719-.227-.87.189-1.06.492-.189.303-.794 1.249-.908 1.438-.151.34.265.416.492.416 5.148.152 7.911-.794 10.94-4.239 2.838-3.634 3.368-6.36 5.223-10.03.303-.606.72-1.212 1.438-1.212z" fill="#fff"/></symbol><symbol viewBox="0 0 182 96" id="icon-logo"><title>logo</title><path d="M135.607 32.603l-7.177-8.844 6.968-7.552h-5.299l-5.758 6.342v-6.342h-4.423v16.376h4.423v-7.114l5.821 7.134h5.445zM15.355 32.583h-4.298v-2.316c-1.23 1.815-2.983 2.795-5.34 2.795-3.526 0-5.717-1.94-5.717-5.84V16.206h4.527v9.366c0 2.066.188 3.714 2.754 3.714 2.817 0 3.547-2.149 3.547-4.631v-8.449h4.464v16.376h.063zM28.165 32.583v-6.884h-6.322v6.884h-4.485V16.207h4.464v5.925h6.322v-5.925h4.464v16.376h-4.443zM42.873 19.67v12.913h-4.465V19.67h-4.673v-3.463h13.832v3.463h-4.694zM55.807 33.062c-5.048 0-8.386-3.42-8.386-8.573 0-5.07 3.463-8.762 8.22-8.762 4.944 0 8.094 3.61 8.094 9.366v.439H51.99c.062 2.816 1.418 4.338 3.838 4.338 1.648 0 2.67-.73 3.338-2.378h4.319c-1.022 3.567-3.964 5.57-7.678 5.57zm-.166-14.06c-2.003 0-3.401 1.398-3.651 3.672h7.176c-.188-1.982-1.272-3.672-3.525-3.672zM69.055 18.23c1.21-1.689 2.984-2.482 5.07-2.482 4.402 0 7.302 3.463 7.302 8.72 0 5.131-2.817 8.51-7.114 8.51-2.066 0-3.84-.75-5.05-2.44v7.093H64.8V16.207h4.256v2.024zm.063 6.196c0 3.17 1.46 5.048 3.943 5.048 2.42 0 3.88-1.877 3.88-4.985 0-3.213-1.48-5.111-3.901-5.111-2.462 0-3.922 1.877-3.922 5.048z" fill="#009BA5"/><path d="M142.137 33c-5.049 0-8.345-3.359-8.345-8.47 0-5.298 3.338-8.782 8.407-8.782 4.382 0 7.302 2.378 7.678 6.196h-4.402c-.313-1.815-1.481-2.816-3.234-2.816-2.441 0-3.901 1.96-3.901 5.319 0 3.275 1.398 5.132 3.818 5.132 1.94 0 3.15-1.148 3.484-3.296h4.339c-.584 4.234-3.505 6.717-7.844 6.717zM110.801 15.81h-4.756c-.835.022-.626-.98-.563-1.188 2.128-8.01 3.922-10.368 6.822-10.243 1.293.063 1.836.334 2.503 1.002.563.563.584.876 1.544-.751 1.168-1.961 1.21-2.045 1.544-2.608.229-.396.813-1.001-.271-1.022-13.791-.25-13.978 5.006-18.693 13.976-.501.835-1.043.814-2.629.814h-3.463c-1.899 0-4.465.25-6.489 1.752-1.564 1.168-3.88 3.421-3.9 7.218 0 2.232 1.063 4.485 2.002 5.486 1.127 1.21 1.815 1.794 2.796 2.232.292.146.375.104.48.084.208-.042.375-.188.521-.313 2.337-2.066 2.483-2.17 3.38-2.942.354-.333.083-.542-.334-.563-1.815-.146-2.942-.605-3.693-1.377-.897-.918-1.106-1.835-1.189-2.712-.209-2.273 1.565-4.192 3.067-5.048.897-.521 2.149-.792 3.839-.792 2.399 0 3.066.083 3.358.396.313.292.585.605.21 1.565-2.254 5.715-3.255 8.76-7.574 16.166-2.149 3.672-6.092 6.07-11.537 4.297-1.252-.417-1.481.292-1.836.856-.334.521-1.377 2.107-1.565 2.461-.27.543.46.73.856.73 8.762.271 13.477-1.356 18.65-7.217 4.82-6.175 5.759-10.869 8.93-17.127.501-1.084 1.21-2.065 2.462-2.107h5.424c1.982 0 2.942.689 2.963 2.17h-2.337c-.876 0-6.029-.063-8.324 4.005-.397.71-1.043 1.961-.855 3.609v.02c.229 2.17 1.794 3.693 3.943 4.298h.02c.334.104.647.167.939.209.417.062.835.083 1.294.083 1.961 0 3.88-.667 5.278-2.023v1.376h4.36v-11.39c-.021-4.63-3.88-5.381-7.177-5.381zm2.796 10.952c0 .94-.48 1.92-.918 2.337-1.189 1.189-3.088 1.272-3.943 1.043-.73-.188-1.982-.918-2.024-2.212-.083-1.627.522-2.398 1.544-3.108 1.023-.688 2.191-.834 2.942-.834h2.399v2.774z" fill="#009BA5"/><path d="M17.043 54.986c8.53 0 14.459 3.991 14.459 12.697 0 8.588-6.105 12.579-14.029 12.579H8.61v14.183H.02V54.986h17.023zM8.61 73.434h7.709c3.874 0 6.77-1.271 6.77-5.654 0-4.206-2.877-5.712-6.711-5.712H8.61v11.366zM47.858 95.325c-8.921 0-14.791-6.045-14.791-15.18 0-9.098 5.928-15.123 14.909-15.123 8.804 0 14.635 6.045 14.635 15.122-.02 9.195-5.83 15.181-14.753 15.181zm-.117-24.317c-4.207 0-6.809 3.443-6.809 9.136 0 5.87 2.544 9.254 6.926 9.254 4.324 0 6.868-3.443 6.868-9.312 0-5.713-2.602-9.078-6.985-9.078zM79.105 95.169c-8.805 0-14.577-5.87-14.577-14.79 0-9.253 5.811-15.357 14.694-15.357 7.65 0 12.737 4.147 13.402 10.799h-7.689c-.548-3.15-2.602-4.93-5.654-4.93-4.266 0-6.81 3.443-6.81 9.312 0 5.712 2.447 8.98 6.653 8.98 3.385 0 5.479-1.996 6.105-5.772h7.591c-1.017 7.434-6.124 11.758-13.715 11.758zM108.707 95.169c-8.805 0-14.576-5.87-14.576-14.79 0-9.253 5.81-15.357 14.693-15.357 7.65 0 12.737 4.147 13.403 10.799h-7.709c-.548-3.15-2.602-4.93-5.655-4.93-4.265 0-6.808 3.443-6.808 9.312 0 5.712 2.445 8.98 6.652 8.98 3.385 0 5.478-1.996 6.104-5.772h7.592c-1.018 7.434-6.105 11.758-13.696 11.758zM143.944 94.445V75.097l-10.193 19.348h-8.922V65.844h7.533v19.348l10.193-19.348h8.922v28.601h-7.533zM173.214 94.445V83.862h-3.326l-8.198 10.583h-9.646l9.47-11.249c-4.05-.665-7.259-3.932-7.259-8.647 0-5.047 3.933-8.705 9.47-8.705h17.296v28.601h-7.807zm0-22.947h-6.261c-3.6 0-4.715 1.173-4.715 3.325 0 2.21 1.057 3.385 4.715 3.385h6.261v-6.71z" fill="#042F60"/></symbol><symbol viewBox="0 0 43 38" id="icon-mail-icon-sm"><title>mail-icon-sm</title><path fill="#042F60" d="M0 0h43v38H0z"/><path fill-rule="evenodd" clip-rule="evenodd" d="M30.086 24.285V13.01l-6.947 5.637 6.947 5.637zm-16.91.917h16.91l-8.52-6.554-8.39 6.554zm16.91-13.108h-16.91l8.52 6.554 8.39-6.554zm-16.91.917v11.274l6.948-5.637-6.948-5.637z" fill="#fff"/></symbol><symbol viewBox="0 0 83 43" id="icon-mail-icon"><title>mail-icon</title><path fill="#042F60" d="M.378 0h81.7v40.848H.378z"/><path fill-rule="evenodd" clip-rule="evenodd" d="M50.7 27.377v-13.85l-8.535 6.926 8.535 6.924zm-20.774 1.128H50.7l-10.468-8.052-10.306 8.052zM50.7 12.4H29.926l10.468 8.053L50.7 12.4zm-20.774 1.128v13.85l8.535-6.925-8.535-6.925z" fill="#fff"/></symbol><symbol viewBox="0 0 42 38" id="icon-odnoklassniki-icon-sm"><title>odnoklassniki-icon-sm</title><path fill="#F08E30" d="M0 0h42v38H0z"/><path d="M20.071 19.357c2.704 0 4.981-2.277 4.981-4.981 0-2.704-2.277-4.981-4.98-4.981-2.705 0-4.982 2.277-4.982 4.98-.142 2.705 2.135 4.982 4.981 4.982zm0-7.116c1.139 0 2.135.996 2.135 2.135 0 1.138-.996 2.135-2.135 2.135-1.138 0-2.135-.997-2.135-2.135 0-1.139.854-2.135 2.135-2.135zm5.266 7.97c-.427-.712-1.28-.854-1.992-.427-1.993 1.28-4.697 1.28-6.69 0-.711-.427-1.565-.285-1.992.427-.427.712-.285 1.566.427 1.992.854.57 1.85.997 2.846 1.14l-2.846 2.846c-.57.569-.57 1.565 0 2.134.285.285.712.427.996.427.427 0 .712-.142.997-.427l2.704-2.704 2.704 2.704c.569.57 1.565.57 2.135 0 .569-.569.569-1.565 0-2.134l-2.847-2.847c.996-.284 1.993-.57 2.847-1.139.996-.426 1.138-1.28.711-1.992z" fill="#F8F8F8"/></symbol><symbol viewBox="0 0 82 42" id="icon-odnoklassniki-icon"><title>odnoklassniki-icon</title><path fill="#F08E30" d="M.265 0h81.7v40.848H.265z"/><path d="M40.804 21.354c2.983 0 5.495-2.512 5.495-5.495 0-2.984-2.512-5.496-5.495-5.496s-5.496 2.512-5.496 5.496c-.157 2.983 2.355 5.495 5.496 5.495zm0-7.85c1.256 0 2.355 1.099 2.355 2.355s-1.099 2.355-2.355 2.355-2.355-1.1-2.355-2.355c0-1.256.942-2.355 2.355-2.355zm5.81 8.792c-.472-.785-1.414-.942-2.199-.47-2.198 1.412-5.181 1.412-7.38 0-.785-.472-1.727-.315-2.198.47-.47.785-.314 1.728.471 2.199.942.628 2.041 1.099 3.14 1.256l-3.14 3.14c-.628.628-.628 1.727 0 2.355.314.314.785.471 1.1.471.47 0 .785-.157 1.099-.47l2.983-2.984 2.983 2.983c.628.628 1.727.628 2.355 0 .628-.628.628-1.727 0-2.355l-3.14-3.14c1.1-.314 2.198-.628 3.14-1.256 1.1-.471 1.256-1.414.785-2.199z" fill="#F8F8F8"/></symbol><symbol viewBox="0 0 30 30" id="icon-ok-blue"><title>ok-blue</title><path opacity=".4" stroke="#042F60" d="M.5.5h29v29H.5z"/><path d="M15 15.64c2.462 0 4.461-1.998 4.461-4.46 0-2.461-2-4.46-4.46-4.46-2.462 0-4.461 1.999-4.461 4.46 0 2.462 1.999 4.46 4.46 4.46zm0-6.297c1.012 0 1.85.825 1.85 1.85 0 1.012-.825 1.849-1.85 1.849a1.853 1.853 0 0 1-1.849-1.85c0-1.024.837-1.849 1.85-1.849zM16.8 19.277a8.228 8.228 0 0 0 2.586-1.075 1.3 1.3 0 0 0 .412-1.799 1.3 1.3 0 0 0-1.8-.412 5.646 5.646 0 0 1-5.997 0 1.3 1.3 0 0 0-1.8.412 1.3 1.3 0 0 0 .413 1.8c.8.5 1.687.861 2.587 1.074l-2.487 2.486a1.305 1.305 0 0 0 0 1.85c.25.25.588.387.925.387.337 0 .675-.125.925-.387l2.448-2.45 2.45 2.45a1.305 1.305 0 0 0 1.849 0 1.305 1.305 0 0 0 0-1.85l-2.512-2.486z" fill="#042F60"/></symbol><symbol viewBox="0 0 30 30" id="icon-ok"><title>ok</title><path opacity=".4" stroke="#C4C4C4" d="M.5.5h29v29H.5z"/><path d="M15 15.921c2.462 0 4.461-1.999 4.461-4.46 0-2.462-2-4.461-4.46-4.461-2.462 0-4.461 2-4.461 4.46 0 2.462 1.999 4.461 4.46 4.461zm0-6.297c1.012 0 1.85.825 1.85 1.85 0 1.011-.825 1.848-1.85 1.848a1.853 1.853 0 0 1-1.849-1.849c0-1.024.837-1.849 1.85-1.849zM16.8 19.557a8.228 8.228 0 0 0 2.586-1.074 1.3 1.3 0 0 0 .412-1.8 1.3 1.3 0 0 0-1.8-.412 5.647 5.647 0 0 1-5.997 0 1.3 1.3 0 0 0-1.8.413 1.3 1.3 0 0 0 .413 1.799c.8.5 1.687.862 2.587 1.074l-2.487 2.487a1.305 1.305 0 0 0 0 1.85c.25.25.588.387.925.387.337 0 .675-.125.925-.388l2.448-2.449 2.45 2.45a1.305 1.305 0 0 0 1.849 0 1.305 1.305 0 0 0 0-1.85l-2.512-2.487z" fill="#fff"/></symbol><symbol viewBox="0 0 26 30" id="icon-pdf"><title>pdf</title><path d="M2.5.5h13.817L23.5 6.566V29.5h-21V.5z" stroke="#A7A7A7"/><path d="M16 0v7h8" stroke="#A7A7A7"/><path fill="#042F60" d="M0 14h26v11H0z"/><path d="M3.66 23h1.42v-2.39h1.7c1.44 0 2.24-.97 2.24-2.13 0-1.17-.79-2.15-2.24-2.15H3.66V23zm3.91-4.53c0 .56-.42.92-.98.92H5.08v-1.84h1.51c.56 0 .98.37.98.92zM9.9 23h2.63c2.09 0 3.54-1.32 3.54-3.33s-1.45-3.34-3.54-3.34H9.9V23zm1.42-1.25v-4.17h1.21c1.37 0 2.09.91 2.09 2.09 0 1.13-.77 2.08-2.09 2.08h-1.21zM17.078 23h1.42v-2.78h3.23V19h-3.23v-1.45h3.3v-1.22h-4.72V23z" fill="#fff"/></symbol><symbol viewBox="0 0 14.211 13.776" id="icon-person"><title>person</title><path d="M13.043 10.059c-.077-.166-.183-.326-.317-.484s-.311-.275-.527-.354a7.033 7.033 0 0 1-.403-.154 134.544 134.544 0 0 1-1.214-.504 86.46 86.46 0 0 1-1.337-.583l-.565-.248v-.906c0-.041.013-.107.038-.198a40.585 40.585 0 0 1 .201-.646c.15-.279.268-.593.354-.942A4.73 4.73 0 0 0 9.4 3.933c0-.526-.056-.973-.167-1.337s-.264-.659-.457-.885a1.723 1.723 0 0 0-.675-.487 2.206 2.206 0 0 0-.818-.151c-.295 0-.569.051-.825.154-.256.104-.479.27-.671.497-.192.227-.343.522-.454.884-.11.361-.167.803-.167 1.325 0 .398.045.774.133 1.129s.207.67.356.949a7.38 7.38 0 0 1 .182.594l.05.189v.883c-.16.072-.346.156-.559.25l-.674.294-.716.31a47.245 47.245 0 0 1-1.277.531c-.176.07-.318.123-.427.158a1.237 1.237 0 0 0-.519.354 2.15 2.15 0 0 0-.317.484 2.758 2.758 0 0 0-.209.605v.984h12.057v-.984a2.456 2.456 0 0 0-.203-.604z"/></symbol><symbol viewBox="0 0 23 20" id="icon-photo-camera-gray"><title>photo-camera-gray</title><path fill-rule="evenodd" clip-rule="evenodd" d="M7.407 0h8.186l1.56 3.119H23v15.983H0V3.119h5.847L7.407 0zm4.288 16.763a5.847 5.847 0 1 0 0-11.695 5.847 5.847 0 0 0 0 11.695zm0-1.95a3.898 3.898 0 1 0 0-7.796 3.898 3.898 0 0 0 0 7.797z" fill="#99AAAB"/></symbol><symbol viewBox="0 0 23 20" id="icon-photo-camera-white"><title>photo-camera-white</title><path fill-rule="evenodd" clip-rule="evenodd" d="M7.407 0h8.186l1.56 3.119H23v15.983H0V3.119h5.847L7.407 0zm4.288 16.763a5.847 5.847 0 1 0 0-11.695 5.847 5.847 0 0 0 0 11.695zm0-1.95a3.898 3.898 0 1 0 0-7.796 3.898 3.898 0 0 0 0 7.797z" fill="#fff"/></symbol><symbol viewBox="0 0 18 15" id="icon-photo-camera"><title>photo-camera</title><path d="M13.8 2.529l-2-2.057H6.1l-2 2.057H0v11.658h18V2.53h-4.2zM9 12.522c-2.6 0-4.8-2.058-4.8-4.703 0-2.547 2.1-4.702 4.8-4.702 2.6 0 4.8 2.057 4.8 4.702s-2.1 4.703-4.8 4.703zm.1-7.446c-1.6 0-2.9 1.274-2.9 2.841 0 1.568 1.3 2.841 2.9 2.841 1.6 0 2.9-1.273 2.9-2.84 0-1.568-1.3-2.842-2.9-2.842z" fill="#fff"/></symbol><symbol viewBox="0 0 34 33" id="icon-photo-gallery-open"><title>photo-gallery-open</title><path opacity=".6" fill="#000" d="M0 0h34v33H0z"/><rect x="27" y="14" width="2" height="8" rx="1" transform="rotate(-180 27 14)" fill="#fff"/><rect x="19" y="8" width="2" height="8" rx="1" transform="rotate(-90 19 8)" fill="#fff"/><path stroke="#fff" stroke-width="2" stroke-linecap="round" stroke-linejoin="round" d="M18.73 14.64l6.613-6.613"/><rect x="7" y="19.054" width="2" height="8" rx="1" fill="#fff"/><rect x="15" y="25.054" width="2" height="8" rx="1" transform="rotate(90 15 25.054)" fill="#fff"/><path stroke="#fff" stroke-width="2" stroke-linecap="round" stroke-linejoin="round" d="M15.27 18.414l-6.613 6.613"/></symbol><symbol viewBox="0 0 21 22" id="icon-reload"><title>reload</title><path d="M19 11.5a8.5 8.5 0 1 1-3.4-6.8" stroke="#C4C4C4" stroke-width="3"/><path d="M19 8V0l-8 8h8z" fill="#C4C4C4"/></symbol><symbol viewBox="0 0 30 30" id="icon-rss-blue"><title>rss-blue</title><path opacity=".4" stroke="#042F60" d="M.5.5h29v29H.5z"/><path d="M10.658 21.1a1.657 1.657 0 1 1-.002-3.313 1.657 1.657 0 0 1 .002 3.314zm3.961 0A5.68 5.68 0 0 0 9 15.489v-2.452c4.446.031 8.043 3.624 8.075 8.065H14.62zm4.16 0c-.015-5.4-4.386-9.758-9.779-9.782V8.865c6.752.024 12.22 5.49 12.235 12.236H18.78z" fill="#042F60"/></symbol><symbol viewBox="0 0 30 30" id="icon-rss"><title>rss</title><path opacity=".4" stroke="#C4C4C4" d="M.5.5h29v29H.5z"/><path d="M11.658 22.101a1.657 1.657 0 1 1-.002-3.313 1.657 1.657 0 0 1 .002 3.313zm3.961 0A5.68 5.68 0 0 0 10 16.489v-2.453c4.446.032 8.043 3.624 8.075 8.065H15.62zm4.16 0c-.015-5.401-4.386-9.758-9.779-9.782V9.866c6.752.023 12.22 5.49 12.235 12.235H19.78z" fill="#fff"/></symbol><symbol viewBox="0 0 97 97" id="icon-sent"><title>sent</title><circle cx="48.5" cy="48.5" r="45.5" stroke="#009DAA" stroke-width="6"/><path d="M25 45.48L43.325 64 74 33" stroke="#009DAA" stroke-width="6" stroke-linecap="round" stroke-linejoin="round"/></symbol><symbol viewBox="0 0 18 20" id="icon-show-more"><title>show-more</title><path d="M14.964 8.525a6.062 6.062 0 0 1-4.105 7.527l.282.96a7.062 7.062 0 0 0 4.782-8.769l-.96.282zm-4.105 7.527a6.062 6.062 0 0 1-7.527-4.104l-.96.282a7.062 7.062 0 0 0 8.77 4.782l-.283-.96zM7.437 4.421a6.062 6.062 0 0 1 7.527 4.104l.959-.282a7.062 7.062 0 0 0-8.769-4.782l.283.96z" fill="#8AAFB3"/><path stroke="#8AAFB3" d="M6.865 3.977L10.284.558M7.084 3.488l3.419 3.419"/></symbol><symbol viewBox="0 0 42 38" id="icon-telegram-icon-sm"><title>telegram-icon-sm</title><path fill="#33ABDC" d="M0 0h42v38H0z"/><path d="M30.228 9.238l-21.262 8.02s-.966.31-.966.926c0 .617.966.926.966.926l5.316 1.697s.966 5.244 1.933 6.632c.322.308.644.463.644.463.322.154.644 0 .644 0l3.544-3.085 5.476 4.01c1.45.617 1.933-.617 1.933-.617L32 9.7c0-1.233-1.772-.462-1.772-.462zm-2.577 4.165c-.483.308-10.148 8.637-10.148 8.637v.155l-.16 1.542-.484 3.24s-.161 0-.644-.772c-.483-1.08-1.128-5.707-1.128-5.707l12.08-7.558s.806-.463.645 0c0 0 .161 0-.161.463z" fill="#fff"/></symbol><symbol viewBox="0 0 83 41" id="icon-telegram-icon"><title>telegram-icon</title><path fill="#33ABDC" d="M.561 0h81.7v40.848H.561z"/><path d="M51.329 10.44l-22.855 9.087s-1.04.35-1.04 1.049 1.04 1.048 1.04 1.048l5.713 1.923s1.04 5.942 2.078 7.515c.346.35.693.524.693.524.346.175.692 0 .692 0l3.81-3.495 5.886 4.544c1.559.699 2.078-.7 2.078-.7l3.81-20.971c0-1.399-1.905-.525-1.905-.525zm-2.77 4.718c-.52.35-10.909 9.787-10.909 9.787v.175l-.173 1.747-.52 3.67s-.172 0-.692-.873c-.52-1.224-1.212-6.467-1.212-6.467l12.986-8.563s.866-.525.693 0c0 0 .173 0-.173.524z" fill="#fff"/></symbol><symbol viewBox="0 0 24 18" id="icon-toggler"><title>toggler</title><path fill="#000" d="M0 0h24v2H0zM0 8h24v2H0zM0 16h24v2H0z"/></symbol><symbol viewBox="0 0 30 30" id="icon-twitter-blue"><title>twitter-blue</title><path opacity=".4" stroke="#042F60" d="M.5.5h29v29H.5z"/><path d="M20.954 11.586v.432c0 4.537-3.456 9.614-9.613 9.614a9.417 9.417 0 0 1-5.185-1.513h.864c1.62 0 3.025-.54 4.213-1.404-1.512 0-2.7-.972-3.132-2.376.216.108.432.108.648.108.324 0 .648 0 .864-.108-1.512-.324-2.7-1.728-2.7-3.349.431.216.972.432 1.512.432-.865-.648-1.513-1.62-1.513-2.808 0-.648.216-1.188.432-1.728 1.729 2.052 4.213 3.456 7.022 3.564-.108-.216-.108-.54-.108-.756 0-1.836 1.512-3.348 3.456-3.348.972 0 1.836.432 2.484 1.08.756-.108 1.513-.432 2.16-.756-.215.756-.755 1.404-1.512 1.836.649-.108 1.297-.324 1.945-.54-.54.54-1.188 1.08-1.837 1.62z" fill="#042F60"/></symbol><symbol viewBox="0 0 43 38" id="icon-twitter-icon-sm"><title>twitter-icon-sm</title><path fill="#26ADE8" d="M0 0h43v38H0z"/><path d="M30.704 15.114v.494c0 5.191-4.075 11-11.333 11-2.293 0-4.33-.617-6.113-1.73h1.019c1.91 0 3.566-.618 4.966-1.607-1.782 0-3.183-1.112-3.693-2.719.255.124.51.124.764.124.383 0 .764 0 1.02-.124-1.784-.37-3.184-1.977-3.184-3.831.51.247 1.146.494 1.782.494-1.018-.741-1.782-1.854-1.782-3.213 0-.742.254-1.36.51-1.978 2.037 2.349 4.965 3.955 8.276 4.079-.127-.247-.127-.618-.127-.865 0-2.101 1.783-3.832 4.075-3.832 1.146 0 2.165.495 2.929 1.236.891-.123 1.782-.494 2.546-.865-.254.865-.891 1.607-1.782 2.101.764-.123 1.528-.37 2.292-.618-.637.618-1.401 1.236-2.165 1.854z" fill="#fff"/></symbol><symbol viewBox="0 0 83 43" id="icon-twitter-icon"><title>twitter-icon</title><path fill="#26ADE8" d="M.817 0h81.697v40.848H.817z"/><path d="M52.485 16.462v.628c0 6.595-5.154 13.975-14.333 13.975-2.899 0-5.476-.785-7.73-2.198h1.288c2.416 0 4.51-.785 6.28-2.041-2.254 0-4.025-1.414-4.67-3.455.323.157.645.157.967.157.483 0 .966 0 1.288-.157-2.254-.47-4.026-2.512-4.026-4.867.644.314 1.45.628 2.255.628-1.289-.942-2.255-2.356-2.255-4.083 0-.942.322-1.727.644-2.512 2.577 2.983 6.281 5.025 10.468 5.182-.161-.315-.161-.786-.161-1.1 0-2.669 2.255-4.867 5.153-4.867 1.45 0 2.738.628 3.704 1.57 1.128-.157 2.255-.628 3.221-1.099-.322 1.1-1.127 2.041-2.254 2.67.966-.158 1.932-.472 2.898-.786-.805.785-1.771 1.57-2.737 2.355z" fill="#fff"/></symbol><symbol viewBox="0 0 30 30" id="icon-twitter"><title>twitter</title><path opacity=".4" stroke="#C4C4C4" d="M.5.5h29v29H.5z"/><path d="M21.955 12.585v.432c0 4.537-3.456 9.614-9.613 9.614a9.417 9.417 0 0 1-5.185-1.512h.864c1.62 0 3.025-.54 4.213-1.404-1.512 0-2.7-.973-3.133-2.377.216.108.432.108.648.108.324 0 .649 0 .864-.108-1.512-.324-2.7-1.728-2.7-3.348.432.216.972.432 1.512.432-.864-.648-1.512-1.62-1.512-2.809 0-.648.216-1.188.432-1.728 1.728 2.052 4.213 3.457 7.021 3.565-.108-.216-.108-.54-.108-.756 0-1.837 1.512-3.349 3.457-3.349.972 0 1.836.432 2.484 1.08.756-.108 1.512-.432 2.16-.756-.216.756-.756 1.404-1.512 1.836.648-.108 1.296-.324 1.944-.54-.54.54-1.188 1.08-1.836 1.62z" fill="#fff"/></symbol><symbol viewBox="0 0 30 30" id="icon-vk-blue"><title>vk-blue</title><path opacity=".4" stroke="#042F60" d="M.5.5h29v29H.5z"/><path fill-rule="evenodd" clip-rule="evenodd" d="M14.876 20.822h1.12s.335-.037.503-.223c.15-.168.15-.486.15-.486s-.02-1.51.671-1.716c.69-.224 1.548 1.437 2.481 2.071.71.485 1.232.354 1.232.354h2.48s1.307-.093.69-1.119c-.055-.075-.354-.746-1.846-2.127-1.548-1.436-1.343-1.212.522-3.712 1.138-1.53 1.605-2.444 1.455-2.855-.13-.373-.97-.317-.97-.317h-2.798s-.205-.018-.354.075c-.15.093-.243.317-.243.317s-.448 1.194-1.026 2.202c-1.25 2.108-1.735 2.22-1.94 2.089-.467-.299-.355-1.231-.355-1.884 0-2.052.317-2.892-.597-3.116-.298-.074-.522-.13-1.305-.13-.99-.019-1.847 0-2.314.242-.317.15-.56.504-.41.522.186.02.597.112.82.41.28.393.28 1.27.28 1.27s.168 2.406-.391 2.705c-.373.205-.896-.206-1.996-2.127-.56-.989-.99-2.09-.99-2.09s-.074-.205-.223-.317c-.187-.13-.43-.168-.43-.168H6.445s-.392.019-.541.187c-.13.15-.019.466-.019.466s2.033 4.925 4.384 7.37c2.164 2.238 4.608 2.107 4.608 2.107z" fill="#042F60"/></symbol><symbol viewBox="0 0 43 38" id="icon-vk-icon-sm"><title>vk-icon-sm</title><path fill="#48668A" d="M0 0h43v38H0z"/><path fill-rule="evenodd" clip-rule="evenodd" d="M20.402 26.439h1.38s.413-.045.62-.266c.184-.2.184-.577.184-.577s-.023-1.795.828-2.04c.85-.265 1.908 1.708 3.057 2.461.874.577 1.517.422 1.517.422h3.058s1.609-.111.85-1.33c-.069-.09-.436-.887-2.276-2.528-1.908-1.706-1.655-1.44.644-4.41 1.402-1.819 1.977-2.905 1.793-3.393-.16-.443-1.195-.376-1.195-.376h-3.448s-.253-.022-.437.088c-.184.111-.3.377-.3.377s-.55 1.419-1.263 2.616c-1.54 2.505-2.138 2.638-2.391 2.483-.575-.355-.437-1.463-.437-2.24 0-2.438.39-3.435-.736-3.701-.367-.089-.643-.155-1.609-.155-1.218-.022-2.276 0-2.85.288-.391.177-.69.598-.506.62.23.023.735.133 1.011.488.345.466.345 1.508.345 1.508s.207 2.86-.483 3.214c-.46.244-1.103-.244-2.46-2.527-.689-1.175-1.218-2.483-1.218-2.483s-.092-.244-.276-.377c-.23-.155-.528-.2-.528-.2H10.01s-.482.023-.666.222c-.161.178-.023.555-.023.555s2.505 5.852 5.402 8.756c2.667 2.66 5.678 2.505 5.678 2.505z" fill="#fff"/></symbol><symbol viewBox="0 0 83 41" id="icon-vk-icon"><title>vk-icon</title><path fill="#48668A" d="M.446 0h81.7v40.848H.446z"/><path fill-rule="evenodd" clip-rule="evenodd" d="M38.456 28.973h1.589s.476-.051.715-.307c.211-.23.211-.666.211-.666s-.026-2.073.954-2.355c.98-.307 2.197 1.971 3.52 2.841 1.007.666 1.748.487 1.748.487h3.522s1.853-.128.98-1.536c-.08-.102-.504-1.024-2.622-2.918-2.197-1.97-1.906-1.663.742-5.093 1.615-2.099 2.277-3.353 2.065-3.916-.186-.512-1.377-.435-1.377-.435h-3.971s-.292-.025-.504.102c-.211.128-.344.436-.344.436s-.635 1.638-1.456 3.02c-1.774 2.892-2.462 3.045-2.754 2.866-.661-.41-.503-1.689-.503-2.585 0-2.815.45-3.967-.847-4.274-.424-.102-.741-.18-1.853-.18-1.404-.025-2.621 0-3.283.333-.45.205-.795.692-.583.717.265.026.847.154 1.165.563.397.538.397 1.74.397 1.74s.239 3.302-.556 3.712c-.53.281-1.27-.282-2.833-2.918a25.117 25.117 0 0 1-1.403-2.866s-.106-.282-.318-.436a1.683 1.683 0 0 0-.609-.23h-3.76s-.555.026-.767.256c-.186.205-.027.64-.027.64s2.886 6.757 6.222 10.11c3.072 3.07 6.54 2.892 6.54 2.892z" fill="#fff"/></symbol><symbol viewBox="0 0 30 30" id="icon-vk"><title>vk</title><path opacity=".4" stroke="#C4C4C4" d="M.5.5h29v29H.5z"/><path fill-rule="evenodd" clip-rule="evenodd" d="M13.876 21.822h1.12s.335-.037.503-.223c.15-.168.15-.486.15-.486s-.02-1.51.671-1.716c.69-.224 1.548 1.437 2.481 2.071.71.485 1.232.354 1.232.354h2.48s1.307-.093.69-1.119c-.055-.075-.354-.746-1.846-2.127-1.548-1.436-1.343-1.212.522-3.712 1.138-1.53 1.605-2.444 1.455-2.855-.13-.373-.97-.317-.97-.317h-2.798s-.205-.018-.354.075c-.15.093-.243.317-.243.317s-.448 1.194-1.026 2.202c-1.25 2.108-1.735 2.22-1.94 2.089-.467-.299-.355-1.231-.355-1.884 0-2.052.318-2.892-.597-3.116-.298-.074-.522-.13-1.306-.13-.988-.019-1.846 0-2.313.242-.317.15-.56.504-.41.522.186.02.597.112.82.41.28.393.28 1.27.28 1.27s.168 2.406-.391 2.705c-.373.205-.896-.206-1.996-2.127-.56-.989-.99-2.09-.99-2.09s-.074-.205-.223-.317c-.187-.13-.43-.168-.43-.168H5.445s-.392.019-.541.187c-.13.15-.019.466-.019.466s2.033 4.925 4.384 7.37c2.164 2.238 4.608 2.107 4.608 2.107z" fill="#fff"/></symbol><symbol viewBox="0 0 43 38" id="icon-whatsapp-icon-sm"><title>whatsapp-icon-sm</title><path fill="#3CC35C" d="M0 0h43v38H0z"/><path d="M30.678 10.503A11.095 11.095 0 0 0 22.595 7c-6.392 0-11.531 5.384-11.469 11.935 0 2.076.564 4.087 1.504 5.903L11 31l6.079-1.622c1.692.973 3.572 1.427 5.452 1.427C28.861 30.805 34 25.422 34 18.87c0-3.178-1.19-6.162-3.322-8.367zm-8.084 18.292c-1.692 0-3.384-.455-4.826-1.363l-.376-.194-3.634.973.94-3.697-.251-.39c-2.758-4.605-1.442-10.702 3.07-13.556 4.513-2.854 10.341-1.492 13.099 3.178 2.757 4.67 1.441 10.703-3.071 13.557-1.442.973-3.196 1.492-4.951 1.492zm5.515-7.2l-.69-.325s-1.002-.454-1.629-.778c-.063 0-.125-.065-.188-.065-.188 0-.313.065-.439.13 0 0-.062.065-.94 1.103a.343.343 0 0 1-.313.194h-.063a.469.469 0 0 1-.25-.13l-.314-.13c-.689-.324-1.316-.713-1.817-1.232-.125-.13-.313-.26-.439-.389-.438-.454-.877-.973-1.19-1.557l-.063-.13c-.063-.064-.063-.13-.126-.259 0-.13 0-.26.063-.324 0 0 .25-.325.439-.52.125-.129.188-.323.313-.453.126-.195.188-.454.126-.649-.063-.324-.815-2.076-1.003-2.465-.125-.194-.25-.26-.439-.324H18.458c-.126 0-.25.065-.376.065l-.063.065c-.125.064-.25.194-.376.26-.125.129-.188.258-.313.388a3.381 3.381 0 0 0-.69 2.011c0 .519.126 1.038.314 1.492l.062.195a10.803 10.803 0 0 0 2.32 3.308l.25.26c.188.194.376.324.501.518 1.316 1.168 2.82 2.01 4.512 2.465.189.065.44.065.627.13h.627c.313 0 .69-.13.94-.26.188-.13.313-.13.439-.26l.125-.129c.125-.13.25-.195.376-.324.125-.13.25-.26.313-.39.126-.259.188-.583.251-.908v-.454s-.063-.064-.188-.13z" fill="#fff"/></symbol><symbol viewBox="0 0 83 41" id="icon-whatsapp-icon"><title>whatsapp-icon</title><path fill="#3CC35C" d="M.932 0h81.697v40.848H.932z"/><path d="M36.55 29.956l.43.215c1.79 1.074 3.797 1.576 5.804 1.576 6.306 0 11.466-5.16 11.466-11.466 0-3.01-1.218-5.948-3.368-8.098-2.15-2.15-5.017-3.368-8.098-3.368-6.306 0-11.466 5.16-11.395 11.537 0 2.15.645 4.229 1.72 6.02l.287.43-1.147 4.228 4.3-1.075z" fill="#3CC35C"/><path d="M52.1 11.036c-2.437-2.508-5.805-3.87-9.245-3.87-7.31 0-13.186 5.948-13.114 13.186 0 2.294.645 4.515 1.72 6.522l-1.863 6.808 6.951-1.792c1.935 1.075 4.085 1.577 6.235 1.577 7.238 0 13.114-5.948 13.114-13.186 0-3.512-1.361-6.808-3.798-9.245zm-9.245 20.21c-1.934 0-3.87-.502-5.518-1.506l-.43-.215-4.156 1.075 1.075-4.084-.287-.43c-3.153-5.089-1.648-11.825 3.512-14.978 5.16-3.153 11.824-1.648 14.977 3.511 3.154 5.16 1.649 11.825-3.511 14.978-1.648 1.075-3.655 1.648-5.662 1.648zm6.307-7.955l-.788-.359s-1.147-.501-1.864-.86c-.071 0-.143-.071-.215-.071-.215 0-.358.071-.501.143 0 0-.072.072-1.075 1.218a.394.394 0 0 1-.359.215h-.071a.543.543 0 0 1-.287-.143l-.358-.143c-.788-.359-1.505-.789-2.078-1.362-.144-.143-.359-.287-.502-.43-.502-.502-1.003-1.075-1.362-1.72l-.071-.143c-.072-.072-.072-.143-.144-.287 0-.143 0-.287.072-.358 0 0 .287-.358.502-.573.143-.144.215-.359.358-.502.143-.215.215-.502.143-.717-.071-.358-.931-2.293-1.146-2.723-.144-.215-.287-.287-.502-.358H38.126c-.144 0-.287.071-.43.071l-.072.072c-.143.072-.287.215-.43.287-.143.143-.215.286-.358.43-.502.645-.789 1.433-.789 2.221 0 .574.144 1.147.359 1.648l.071.215a11.94 11.94 0 0 0 2.652 3.655l.287.287c.215.215.43.358.573.573 1.505 1.29 3.225 2.222 5.16 2.724.215.071.501.071.716.143h.717c.358 0 .788-.143 1.075-.287.215-.143.358-.143.502-.286l.143-.144c.143-.143.287-.215.43-.358.143-.143.287-.287.358-.43.143-.287.215-.645.287-1.003v-.502s-.072-.072-.215-.143z" fill="#fff"/></symbol><symbol viewBox="0 0 83 41" id="icon-whatsupp-icon"><title>whatsupp-icon</title><path fill="#3CC35C" d="M.932 0h81.697v40.848H.932z"/><path d="M36.55 29.956l.43.215c1.79 1.074 3.797 1.576 5.804 1.576 6.306 0 11.466-5.16 11.466-11.466 0-3.01-1.218-5.948-3.368-8.098-2.15-2.15-5.017-3.368-8.098-3.368-6.306 0-11.466 5.16-11.395 11.537 0 2.15.645 4.229 1.72 6.02l.287.43-1.147 4.228 4.3-1.075z" fill="#3CC35C"/><path d="M52.1 11.036c-2.437-2.508-5.805-3.87-9.245-3.87-7.31 0-13.186 5.948-13.114 13.186 0 2.294.645 4.515 1.72 6.522l-1.863 6.808 6.951-1.792c1.935 1.075 4.085 1.577 6.235 1.577 7.238 0 13.114-5.948 13.114-13.186 0-3.512-1.361-6.808-3.798-9.245zm-9.245 20.21c-1.934 0-3.87-.502-5.518-1.506l-.43-.215-4.156 1.075 1.075-4.084-.287-.43c-3.153-5.089-1.648-11.825 3.512-14.978 5.16-3.153 11.824-1.648 14.977 3.511 3.154 5.16 1.649 11.825-3.511 14.978-1.648 1.075-3.655 1.648-5.662 1.648zm6.307-7.955l-.788-.359s-1.147-.501-1.864-.86c-.071 0-.143-.071-.215-.071-.215 0-.358.071-.501.143 0 0-.072.072-1.075 1.218a.394.394 0 0 1-.359.215h-.071a.543.543 0 0 1-.287-.143l-.358-.143c-.788-.359-1.505-.789-2.078-1.362-.144-.143-.359-.287-.502-.43-.502-.502-1.003-1.075-1.362-1.72l-.071-.143c-.072-.072-.072-.143-.144-.287 0-.143 0-.287.072-.358 0 0 .287-.358.502-.573.143-.144.215-.359.358-.502.143-.215.215-.502.143-.717-.071-.358-.931-2.293-1.146-2.723-.144-.215-.287-.287-.502-.358H38.126c-.144 0-.287.071-.43.071l-.072.072c-.143.072-.287.215-.43.287-.143.143-.215.286-.358.43-.502.645-.789 1.433-.789 2.221 0 .574.144 1.147.359 1.648l.071.215a11.94 11.94 0 0 0 2.652 3.655l.287.287c.215.215.43.358.573.573 1.505 1.29 3.225 2.222 5.16 2.724.215.071.501.071.716.143h.717c.358 0 .788-.143 1.075-.287.215-.143.358-.143.502-.286l.143-.144c.143-.143.287-.215.43-.358.143-.143.287-.287.358-.43.143-.287.215-.645.287-1.003v-.502s-.072-.072-.215-.143z" fill="#fff"/></symbol></svg>