<svg width="48" height="48" viewBox="0 0 48 48" fill="none" xmlns="http://www.w3.org/2000/svg">
<g clip-path="url(#clip0_1014_814)">
<path d="M24.01 48.02C37.2703 48.02 48.02 37.2703 48.02 24.01C48.02 10.7496 37.2703 0 24.01 0C10.7496 0 0 10.7496 0 24.01C0 37.2703 10.7496 48.02 24.01 48.02Z" fill="url(#paint0_linear_1014_814)"/>
<path fill-rule="evenodd" clip-rule="evenodd" d="M10.8554 23.7497C17.8525 20.711 22.5105 18.6918 24.8496 17.7122C31.5068 14.9334 32.9062 14.4536 33.8058 14.4336C34.0058 14.4336 34.4456 14.4736 34.7454 14.7135C34.9853 14.9134 35.0453 15.1733 35.0853 15.3732C35.1253 15.5731 35.1653 15.9929 35.1253 16.3128C34.7654 20.1112 33.2061 29.3274 32.4064 33.5656C32.0666 35.3649 31.4068 35.9646 30.7671 36.0246C29.3677 36.1445 28.3081 35.105 26.9687 34.2253C24.8496 32.8459 23.6701 31.9863 21.6109 30.6268C19.2319 29.0675 20.7713 28.2079 22.1307 26.8084C22.4905 26.4486 28.628 20.8509 28.7479 20.3511C28.7679 20.2912 28.7679 20.0513 28.628 19.9313C28.488 19.8114 28.2881 19.8513 28.1282 19.8913C27.9083 19.9313 24.5497 22.1704 18.0124 26.5885C17.0528 27.2483 16.1932 27.5681 15.4135 27.5481C14.5539 27.5281 12.9145 27.0683 11.6751 26.6685C10.1757 26.1887 8.97618 25.9288 9.07614 25.0892C9.13611 24.6493 9.73586 24.2095 10.8554 23.7497Z" fill="white"/>
</g>
<defs>
<linearGradient id="paint0_linear_1014_814" x1="23.99" y1="0" x2="23.99" y2="47.6401" gradientUnits="userSpaceOnUse">
<stop stop-color="#2AABEE"/>
<stop offset="1" stop-color="#229ED9"/>
</linearGradient>
<clipPath id="clip0_1014_814">
<rect width="48" height="48" fill="white"/>
</clipPath>
</defs>
</svg>
