<svg xmlns="http://www.w3.org/2000/svg" width="120" height="120" viewBox="0 0 120 120" fill="none">
  <path d="M17.477 101.531C17.8155 100.854 19.8702 97.7532 20.4695 96.7584C21.1464 95.6772 21.6086 94.2936 24.0309 95.1156C34.6002 98.5608 42.2361 93.8748 46.4023 86.796C54.7588 72.4068 56.6762 66.51 61.0525 55.4508C61.7955 53.5776 61.2625 52.9848 60.6563 52.4088C60.0501 51.8616 58.7961 51.6732 54.1455 51.6732C50.8653 51.6732 48.4721 52.2072 46.7131 53.2176C43.7925 54.888 40.3673 58.5936 40.7861 62.976C40.9304 64.6776 41.3345 66.48 43.0574 68.2404C44.513 69.7104 46.7563 70.6044 50.2451 70.8924C51.0458 70.9788 51.5999 71.3544 50.8944 72.0168C49.1495 73.488 48.9043 73.704 44.3686 77.6976C44.0732 77.928 43.7574 78.2316 43.3457 78.3192C43.1146 78.3468 42.9847 78.4044 42.4151 78.1596C40.4977 77.2668 39.171 76.17 36.9722 73.7904C35.1767 71.8596 33.1295 67.476 33.1295 63.15C33.1295 55.812 37.6131 51.4572 40.6712 49.1784C44.5928 46.2672 49.5682 45.8064 53.2445 45.8064H59.9353C63.0214 45.8064 64.0599 45.8916 65.0397 44.2332C74.1963 26.904 74.5423 16.6956 101.262 17.172C101.71 17.2008 101.983 17.2428 102.149 17.3592C91.341 6.63122 76.4386 0 60.0225 0C26.9141 0 0 26.9184 0 60.0072C0 76.458 6.66875 91.3524 17.4264 102.209C17.3246 102.035 17.3467 101.833 17.477 101.531Z" fill="#EBEEF1"/>
  <path d="M102.465 17.6316C102.596 18.0516 102.07 18.6996 101.803 19.1616C101.104 20.2716 101.06 20.4156 98.7959 24.2364C96.8996 27.3792 96.8996 26.7444 95.7895 25.6644C94.4562 24.366 93.4243 23.8332 90.9379 23.7024C85.285 23.4432 81.8238 28.014 77.7077 43.5564C77.5778 43.9308 77.1816 45.8916 78.8037 45.8484H85.2709C86.9797 45.8484 88.0097 45.8484 88.0617 45.8484C88.515 45.8484 88.9838 45.8484 89.4668 45.8916L87.0734 51.6876C85.631 51.6876 82.0409 51.6876 77.2966 51.6876C74.8742 51.774 73.5039 53.6928 72.5522 55.7976C66.4391 67.9368 64.5793 77.0208 55.2345 88.9872C45.2561 100.32 36.1144 103.477 19.1352 102.986C18.7601 102.973 18.2778 102.872 17.8873 102.684C28.7166 113.396 43.612 120 60.0225 120C93.0859 120 120 93.0684 120 60.0072C120 43.4832 113.31 28.5048 102.465 17.6316Z" fill="#EBEEF1"/>
</svg>