<svg width="173" height="43" viewBox="0 0 173 43" fill="none" xmlns="http://www.w3.org/2000/svg">
<path d="M0 21.5C0 33.3856 9.61444 43 21.5 43C33.3856 43 43 33.3856 43 21.5C43 9.61444 33.3856 0 21.5 0C9.61444 0 0 9.61444 0 21.5Z" fill="#009CA6"/>
<path d="M26.7238 19.4904C28.1622 19.4904 29.2221 19.4904 29.6763 19.4904L30.3955 17.7113C30.2441 17.7113 30.0927 17.7113 29.9791 17.7113C29.9791 17.7113 29.6384 17.7113 29.1464 17.7113H27.2159C26.7238 17.7113 26.8374 17.1435 26.8752 17.03C28.1244 12.3363 29.1842 10.9358 30.8876 11.0115C31.6446 11.0493 31.9474 11.2008 32.3638 11.6171C32.7045 11.9578 32.7045 12.1471 33.2723 11.1629C33.9536 10.0273 33.9914 9.9516 34.1807 9.61093C34.3321 9.38382 34.6728 9.0053 34.0293 9.0053C25.9668 8.85389 25.8532 11.9578 23.0522 17.1814C22.7494 17.6735 22.4465 17.6735 21.5002 17.6735H19.4562C18.3585 17.6735 16.8444 17.8249 15.6332 18.6955C14.7247 19.3768 13.362 20.7016 13.362 22.9349C13.362 24.2219 13.9677 25.5467 14.5355 26.1523C15.1789 26.8715 15.5953 27.2122 16.1631 27.4772C16.3524 27.5529 16.3902 27.5529 16.4281 27.515C16.5416 27.4772 16.6552 27.4015 16.7309 27.3258C18.0936 26.1145 18.1693 26.0388 18.6992 25.6224C18.9263 25.4331 18.737 25.3196 18.5099 25.2817C17.4501 25.206 16.7687 24.9032 16.3524 24.4868C15.8224 23.9569 15.7089 23.427 15.671 22.8971C15.5575 21.5722 16.5795 20.4367 17.4879 19.9446C18.0179 19.6418 18.737 19.4904 19.7212 19.4904C21.1217 19.4904 21.5002 19.5282 21.6895 19.7175C21.8788 19.9067 22.0302 20.0581 21.8031 20.6259C20.4782 23.9569 19.9105 25.7738 17.3744 30.089C16.1252 32.2465 13.8163 33.6471 10.5988 32.625C9.87964 32.3979 9.72822 32.8143 9.53896 33.1171C9.3497 33.4199 8.74406 34.3662 8.63051 34.5555C8.4791 34.8962 8.89547 34.9719 9.12258 34.9719C14.2705 35.1233 17.0337 34.177 20.0619 30.7324C22.9008 27.0986 23.4307 24.3733 25.2855 20.7016C25.5883 20.096 26.0046 19.4904 26.7238 19.4904Z" fill="white"/>
<path d="M61.8906 26.5H59.6016V21.6328H56.2109V26.5H53.9141V15.125H56.2109V19.7266H59.6016V15.125H61.8906V26.5ZM69.6172 21.5781H66.0391V24.5938H70.2734V26.5H63.7422V15.125H70.2578V17.0391H66.0391V19.7266H69.6172V21.5781ZM80.7109 29.2969H78.6016V26.5H73.2188V29.2891H71.0469L70.9219 24.5938H71.6797C72.013 24.2865 72.276 23.7917 72.4688 23.1094C72.6615 22.4271 72.7969 21.5339 72.875 20.4297L73.1953 15.125H79.7344V24.5938H80.9141L80.7109 29.2969ZM74.1484 24.5938H77.4453V17.0391H75.3828L75.1953 20.1719C75.0651 22.0521 74.7161 23.526 74.1484 24.5938ZM82.1016 26.5V15.125H85.6172C86.8047 15.125 87.7057 15.3906 88.3203 15.9219C88.9401 16.4479 89.25 17.2214 89.25 18.2422C89.25 18.8203 89.1224 19.3177 88.8672 19.7344C88.612 20.151 88.263 20.4557 87.8203 20.6484C88.3307 20.7943 88.724 21.0885 89 21.5312C89.276 21.9688 89.4141 22.5104 89.4141 23.1562C89.4141 24.2604 89.1094 25.0938 88.5 25.6562C87.8958 26.2188 87.0182 26.5 85.8672 26.5H82.1016ZM84.3984 21.5547V24.5938H85.8672C86.2786 24.5938 86.5911 24.4661 86.8047 24.2109C87.0182 23.9557 87.125 23.5938 87.125 23.125C87.125 22.1042 86.7552 21.5807 86.0156 21.5547H84.3984ZM84.3984 19.8828H85.5938C86.4948 19.8828 86.9453 19.4167 86.9453 18.4844C86.9453 17.9688 86.8411 17.599 86.6328 17.375C86.4245 17.151 86.0859 17.0391 85.6172 17.0391H84.3984V19.8828ZM96.6562 15.125H98.9531V26.5H96.6562V18.9688L93.3047 26.5H91V15.125H93.3047V22.6641L96.6562 15.125ZM109.43 21.8828H108.344V26.5H106.047V21.8828H104.922L103.133 26.5H100.273L103.141 20.2656L100.398 15.125H103.258L105.109 19.6953H106.047V15.125H108.344V19.6953H109.25L111.039 15.125H113.891L111.211 20.2422L114.016 26.5H111.156L109.43 21.8828ZM120.641 15.125H122.938V26.5H120.641V18.9688L117.289 26.5H114.984V15.125H117.289V22.6641L120.641 15.125ZM127.773 15.125L129.922 23.3516L132.062 15.125H135.062V26.5H132.758V23.4219L132.969 18.6797L130.695 26.5H129.133L126.859 18.6797L127.07 23.4219V26.5H124.773V15.125H127.773ZM144.922 21.8359C144.922 23.362 144.56 24.5469 143.836 25.3906C143.117 26.2344 142.117 26.6562 140.836 26.6562C139.56 26.6562 138.557 26.2396 137.828 25.4062C137.099 24.5677 136.729 23.3958 136.719 21.8906V19.9453C136.719 18.3828 137.081 17.1641 137.805 16.2891C138.529 15.4089 139.534 14.9688 140.82 14.9688C142.086 14.9688 143.083 15.401 143.812 16.2656C144.542 17.125 144.911 18.3333 144.922 19.8906V21.8359ZM142.617 19.9297C142.617 18.9036 142.471 18.1406 142.18 17.6406C141.888 17.1406 141.435 16.8906 140.82 16.8906C140.211 16.8906 139.76 17.1328 139.469 17.6172C139.177 18.0964 139.026 18.8281 139.016 19.8125V21.8359C139.016 22.8307 139.164 23.5651 139.461 24.0391C139.758 24.5078 140.216 24.7422 140.836 24.7422C141.435 24.7422 141.88 24.513 142.172 24.0547C142.464 23.5911 142.612 22.875 142.617 21.9062V19.9297ZM154.281 22.7109C154.224 24.0078 153.859 24.9896 153.188 25.6562C152.516 26.3229 151.568 26.6562 150.344 26.6562C149.057 26.6562 148.07 26.2344 147.383 25.3906C146.701 24.5417 146.359 23.3333 146.359 21.7656V19.8516C146.359 18.2891 146.714 17.0859 147.422 16.2422C148.13 15.3932 149.115 14.9688 150.375 14.9688C151.615 14.9688 152.555 15.3151 153.195 16.0078C153.841 16.7005 154.208 17.6953 154.297 18.9922H151.992C151.971 18.1901 151.846 17.638 151.617 17.3359C151.393 17.0286 150.979 16.875 150.375 16.875C149.76 16.875 149.326 17.0911 149.07 17.5234C148.815 17.9505 148.68 18.6562 148.664 19.6406V21.7891C148.664 22.9193 148.789 23.6953 149.039 24.1172C149.294 24.5391 149.729 24.75 150.344 24.75C150.948 24.75 151.365 24.6042 151.594 24.3125C151.823 24.0156 151.953 23.4818 151.984 22.7109H154.281ZM162.828 17.0391H160.016V26.5H157.711V17.0391H154.945V15.125H162.828V17.0391ZM166.57 19.2109H167.93C169.081 19.2109 169.997 19.5391 170.68 20.1953C171.362 20.8464 171.703 21.7188 171.703 22.8125C171.703 23.901 171.37 24.7839 170.703 25.4609C170.036 26.1328 169.154 26.4792 168.055 26.5H164.266V15.125H166.57V19.2109ZM166.57 21.1172V24.5938H167.961C168.409 24.5938 168.76 24.4271 169.016 24.0938C169.276 23.7552 169.406 23.3229 169.406 22.7969C169.406 22.3021 169.279 21.901 169.023 21.5938C168.773 21.2812 168.424 21.1224 167.977 21.1172H166.57Z" fill="white"/>
</svg>
