<svg width="111" height="43" viewBox="0 0 111 43" fill="none" xmlns="http://www.w3.org/2000/svg">
<path d="M0 21.5C0 33.3856 9.61444 43 21.5 43C33.3856 43 43 33.3856 43 21.5C43 9.61444 33.3856 0 21.5 0C9.61444 0 0 9.61444 0 21.5Z" fill="#009CA6"/>
<path d="M26.7238 19.4905C28.1622 19.4905 29.2221 19.4905 29.6763 19.4905L30.3955 17.7114C30.2441 17.7114 30.0927 17.7114 29.9791 17.7114C29.9791 17.7114 29.6384 17.7114 29.1464 17.7114H27.2159C26.7238 17.7114 26.8374 17.1436 26.8752 17.0301C28.1244 12.3364 29.1842 10.9359 30.8876 11.0116C31.6446 11.0494 31.9474 11.2009 32.3638 11.6172C32.7045 11.9579 32.7045 12.1472 33.2723 11.163C33.9536 10.0275 33.9914 9.95178 34.1807 9.61111C34.3321 9.384 34.6728 9.00548 34.0293 9.00548C25.9668 8.85407 25.8532 11.9579 23.0522 17.1815C22.7494 17.6736 22.4465 17.6736 21.5002 17.6736H19.4562C18.3585 17.6736 16.8444 17.825 15.6332 18.6956C14.7247 19.3769 13.362 20.7017 13.362 22.935C13.362 24.222 13.9677 25.5468 14.5355 26.1524C15.1789 26.8716 15.5953 27.2123 16.1631 27.4773C16.3524 27.553 16.3902 27.553 16.4281 27.5151C16.5416 27.4773 16.6552 27.4016 16.7309 27.3259C18.0936 26.1146 18.1693 26.0389 18.6992 25.6225C18.9263 25.4332 18.737 25.3197 18.5099 25.2818C17.4501 25.2061 16.7687 24.9033 16.3524 24.4869C15.8224 23.957 15.7089 23.4271 15.671 22.8972C15.5575 21.5723 16.5795 20.4368 17.4879 19.9447C18.0179 19.6419 18.737 19.4905 19.7212 19.4905C21.1217 19.4905 21.5002 19.5283 21.6895 19.7176C21.8788 19.9068 22.0302 20.0582 21.8031 20.626C20.4782 23.957 19.9105 25.7739 17.3744 30.0891C16.1252 32.2466 13.8163 33.6472 10.5988 32.6251C9.87964 32.398 9.72822 32.8144 9.53896 33.1172C9.3497 33.42 8.74406 34.3663 8.63051 34.5556C8.4791 34.8963 8.89547 34.972 9.12258 34.972C14.2705 35.1234 17.0337 34.1771 20.0619 30.7325C22.9008 27.0987 23.4307 24.3734 25.2855 20.7017C25.5883 20.0961 26.0046 19.4905 26.7238 19.4905Z" fill="white"/>
<path d="M61.2812 17.0391H58.4688V26.5H56.1641V17.0391H53.3984V15.125H61.2812V17.0391ZM66.1953 20.1797L67.7266 15.125H70.1953L67.0781 24.2656C66.724 25.1719 66.3411 25.7943 65.9297 26.1328C65.5234 26.4714 65.0339 26.6484 64.4609 26.6641H64.2109L63.6641 26.6328L63.625 24.7266C63.6771 24.7474 63.8464 24.7578 64.1328 24.7578C64.4245 24.7578 64.6432 24.6927 64.7891 24.5625C64.9401 24.4323 65.0703 24.1406 65.1797 23.6875L65.2891 23.2734L62.0391 15.125H64.5L66.1953 20.1797ZM73.7109 22.5V26.5H71.4141V15.125H75.2891C76.4141 15.125 77.3099 15.474 77.9766 16.1719C78.6484 16.8698 78.9844 17.776 78.9844 18.8906C78.9844 20.0052 78.6536 20.8854 77.9922 21.5312C77.3307 22.1771 76.4141 22.5 75.2422 22.5H73.7109ZM73.7109 20.5859H75.2891C75.7266 20.5859 76.0651 20.4427 76.3047 20.1562C76.5443 19.8698 76.6641 19.4531 76.6641 18.9062C76.6641 18.3385 76.5417 17.888 76.2969 17.5547C76.0521 17.2161 75.724 17.0443 75.3125 17.0391H73.7109V20.5859ZM86.0938 15.125H88.3906V26.5H86.0938V18.9688L82.7422 26.5H80.4375V15.125H82.7422V22.6641L86.0938 15.125ZM94.7812 18.2578C94.7812 17.8411 94.6641 17.5078 94.4297 17.2578C94.2005 17.0078 93.888 16.8828 93.4922 16.8828C93.1432 16.8828 92.8568 17.0052 92.6328 17.25C92.4141 17.4896 92.3047 17.8099 92.3047 18.2109H90.0078C90.0078 17.5807 90.1589 17.0208 90.4609 16.5312C90.7682 16.0365 91.1901 15.6536 91.7266 15.3828C92.263 15.112 92.8516 14.9766 93.4922 14.9766C94.6224 14.9766 95.5026 15.2604 96.1328 15.8281C96.7682 16.3906 97.0859 17.1849 97.0859 18.2109C97.0859 18.7318 96.9531 19.2083 96.6875 19.6406C96.4271 20.0677 96.0677 20.4062 95.6094 20.6562C96.1302 20.875 96.5312 21.2083 96.8125 21.6562C97.0938 22.099 97.2344 22.651 97.2344 23.3125C97.2344 24.3385 96.8932 25.151 96.2109 25.75C95.5286 26.349 94.6224 26.6484 93.4922 26.6484C92.8047 26.6484 92.1823 26.5156 91.625 26.25C91.0729 25.9844 90.6406 25.6042 90.3281 25.1094C90.0208 24.6146 89.8672 24.026 89.8672 23.3438H92.1719C92.1719 23.7344 92.2943 24.0677 92.5391 24.3438C92.7839 24.6198 93.1016 24.7578 93.4922 24.7578C93.9297 24.7578 94.2786 24.6198 94.5391 24.3438C94.7995 24.0677 94.9297 23.7109 94.9297 23.2734C94.9297 22.6849 94.8177 22.263 94.5938 22.0078C94.3698 21.7526 94.0443 21.625 93.6172 21.625H92.4531V19.7734H93.625C94.3958 19.7682 94.7812 19.263 94.7812 18.2578ZM101.898 15.125L104.047 23.3516L106.188 15.125H109.188V26.5H106.883V23.4219L107.094 18.6797L104.82 26.5H103.258L100.984 18.6797L101.195 23.4219V26.5H98.8984V15.125H101.898Z" fill="#042F60"/>
</svg>
