<svg width="163" height="76" viewBox="0 0 163 76" fill="none" xmlns="http://www.w3.org/2000/svg">
<path d="M12.9021 30.4584V33.0808H17.2027V15.7046H12.5568V23.6283C12.5568 25.5563 12.4378 26.8744 12.2012 27.5895C11.9666 28.3061 11.5271 28.876 10.8887 29.311C10.251 29.7453 9.52877 29.9601 8.72396 29.9601C8.09524 29.9601 7.5587 29.8107 7.11227 29.5072C6.66446 29.205 6.3446 28.7789 6.14511 28.2303C5.947 27.6866 5.84795 26.4786 5.84795 24.6147V15.7046H1.2041V26.5192C1.2041 27.8497 1.2894 28.8698 1.45862 29.5863C1.63127 30.2973 1.93463 30.9368 2.36936 31.5005C2.8041 32.0621 3.4452 32.5219 4.2961 32.8874C5.14425 33.2488 6.0832 33.4277 7.11227 33.4277C9.43797 33.4277 11.3661 32.44 12.9021 30.4584ZM19.267 15.7046H23.8393V22.1437H30.3934V15.7046H34.9623V33.0808H30.3934V25.8378H23.8393V33.0808H19.267V15.7046ZM45.9181 15.7046H36.6242V21.1388L41.2687 19.3498V33.1056H45.9181V19.3498L50.5674 21.1388V15.7046H45.9181ZM57.3444 19.9005C58.1994 19.1083 59.2175 18.7228 60.4563 18.7228C61.7021 18.7228 62.6885 19.1606 63.4727 20.0595C63.959 20.6267 64.2156 21.2764 64.3731 21.9654H56.0484C56.3201 21.1505 56.7411 20.4608 57.3444 19.9005ZM65.0053 27.3913C65.0053 27.3913 64.1991 29.1713 62.6163 29.9601C62.0261 30.254 61.2866 30.4013 60.4247 30.4013C58.8907 30.4013 57.7152 29.8293 56.8367 28.6516C56.2011 27.8091 55.8207 26.8613 55.6777 25.7827H68.7831C68.7831 25.7827 69.3361 21.0644 66.9657 18.0435C65.3678 16.0047 63.223 14.9075 60.4213 14.9075C57.5542 14.9075 55.2457 15.9056 53.5569 17.8734C52.0092 19.6706 51.2195 21.9207 51.2195 24.561C51.2195 27.1297 52.0092 29.353 53.5569 31.1763C55.267 33.193 57.5796 34.2165 60.4213 34.2165C62.4202 34.2165 64.1791 33.6679 65.6491 32.5928C68.3353 30.6229 69.3815 27.3913 69.3815 27.3913H65.0053ZM81.5631 28.4823C80.8601 29.3413 79.9783 29.7708 78.9224 29.7708C77.819 29.7708 76.8849 29.3027 76.1172 28.368C75.3509 27.4319 74.9664 25.9858 74.9664 24.0276C74.9664 22.3233 75.3323 21.0328 76.0684 20.1634C76.8044 19.2927 77.7248 18.8618 78.8419 18.8618C79.9095 18.8618 80.8051 19.3017 81.5273 20.1889C82.2517 21.0747 82.6156 22.4307 82.6156 24.2575C82.6156 26.2157 82.2634 27.6212 81.5631 28.4823ZM85.182 17.6201C83.7843 16.0419 82.0859 15.2496 80.0842 15.2496C78.932 15.2496 77.8857 15.5298 76.9433 16.0866C76.003 16.6455 75.2553 17.3572 74.705 18.2224V15.6908H70.4395V39.535H75.0118V30.8597C75.8668 31.7806 76.6785 32.4283 77.4531 32.8069C78.2276 33.1861 79.0964 33.3775 80.0491 33.3775C82.0508 33.3775 83.7554 32.5742 85.1655 30.9684C86.5709 29.3612 87.2746 27.1112 87.2746 24.2155C87.2746 21.3969 86.5777 19.197 85.182 17.6201ZM115.731 26.7725C115.621 23.4487 120.885 21.7541 124.523 23.627V29.8575C120.505 31.5321 115.94 30.0488 115.731 26.7725ZM124.523 33.0808H129.657V24.5445C129.657 21.7307 129.834 19.8867 128.663 18.0682C127.487 16.2477 125.154 15.5298 123.508 15.5298H114.104C113.222 15.5648 113.432 14.5063 113.502 14.2936C115.731 5.87974 117.529 3.4046 120.567 3.65308C121.875 3.82928 122.685 3.86439 123.288 4.60776C123.784 5.20865 123.962 5.28023 124.914 3.82928C125.51 2.84088 125.973 2.06241 126.327 1.46221C126.644 0.896424 127.46 0.15512 126.256 0.012642C111.805 -0.306042 111.597 5.42133 106.651 14.8236C106.121 15.7073 105.552 15.6722 103.895 15.6722H99.0537C92.5182 15.6722 89.127 20.798 88.7404 23.6621C88.4219 25.3918 88.2438 26.8765 89.0919 28.717C89.7619 30.0943 91.3874 31.9685 93.7908 33.0285C94.4291 33.2756 94.8164 32.8172 94.8501 32.7821C95.56 32.1427 97.7488 30.2003 98.3851 29.7054C98.7724 29.3509 98.3115 29.1396 98.0295 29.1059C93.9683 28.6096 92.4831 27.5138 91.7781 24.8246C91.5655 22.8127 92.5182 18.3236 99.7966 18.2513C102.73 18.3236 105.095 17.9712 104 20.5847C100.044 30.413 99.1239 32.217 94.9911 40.1676C92.4831 43.8452 89.3774 44.3766 84.285 42.7832C82.9643 42.3688 82.5523 43.2849 82.3707 43.6786C82.0997 44.2596 81.625 45.3264 81.4469 45.7043C81.1635 46.2811 81.3918 46.4807 81.8025 46.4773C88.9048 46.405 95.9438 45.0463 101.349 38.8956C106.402 32.4262 107.568 27.2302 110.888 20.6556C111.419 19.4896 112.2 18.4289 113.547 18.4289H121.52C124.073 18.4289 124.523 19.4896 124.523 20.8682C122.685 20.3032 121.132 20.0533 118.946 20.3032C114.244 20.798 111.275 22.7053 111.067 26.9487C111.1 30.1314 114.174 33.4181 119.576 33.3107C121.82 33.416 123.33 33.1008 124.523 31.8591V33.0808ZM136.779 33.0808V25.601C137.442 25.601 137.945 25.7469 138.283 26.0326C138.617 26.321 139.02 26.9652 139.479 27.9736L141.506 33.0808H146.362L144.093 28.1932C144.028 28.0727 143.969 27.9598 143.916 27.8532C142.926 25.749 141.715 24.5004 140.282 24.0998C141.277 23.7323 142.032 22.7508 142.563 21.1635C142.95 19.9845 143.312 19.2762 143.643 19.036C143.979 18.8095 144.746 18.6939 145.943 18.6939L145.926 15.6523C145.074 15.6 144.473 15.5718 144.132 15.5718C143.008 15.5718 142.106 15.812 141.416 16.2883C140.728 16.7666 140.093 17.8549 139.511 19.5584C139.068 20.8366 138.691 21.6639 138.38 22.0446C138.067 22.4238 137.532 22.6572 136.779 22.7439V15.7046H132.207V33.0808H136.779ZM162.525 20.8834L158.042 21.6736C157.889 20.7829 157.54 20.1152 157.002 19.6658C156.462 19.2143 155.762 18.9892 154.9 18.9892C153.756 18.9892 152.842 19.3836 152.161 20.1724C151.477 20.9625 151.137 22.2827 151.137 24.1315C151.137 26.1937 151.48 27.6467 152.171 28.4905C152.863 29.3426 153.791 29.7673 154.951 29.7673C155.82 29.7673 156.533 29.5154 157.086 29.0157C157.641 28.5139 158.031 27.6501 158.258 26.4249L162.744 27.1717C162.28 29.2621 161.386 30.8376 160.065 31.9066C158.748 32.9748 156.976 33.5055 154.757 33.5055C152.235 33.5055 150.226 32.7064 148.726 31.1075C147.227 29.5072 146.476 27.2908 146.476 24.4619C146.476 21.5985 147.23 19.3684 148.733 17.7729C150.24 16.1775 152.277 15.3804 154.84 15.3804C156.944 15.3804 158.61 15.8333 159.852 16.7412C161.092 17.647 161.984 19.0264 162.525 20.8834ZM68.5547 41.1257H70.8082L71.9803 43.1603L73.1174 41.1257H75.3509L73.2914 44.3263L75.5449 47.7389H73.2433L71.9384 45.6148L70.6273 47.7389H68.3456L70.6307 44.2933L68.5547 41.1257ZM62.2221 45.2156L61.4992 42.8382L60.7769 45.2156H62.2221ZM62.6548 46.6521H60.3408L60.0106 47.7389H57.925L60.4082 41.1257H62.6465L65.1229 47.7389H62.985L62.6548 46.6521ZM50.0729 41.1257H55.1267V42.5498H52.1234V43.6958H54.694V45.0346H52.1234V47.7389H50.0729V41.1257ZM41.7227 43.7998H42.5915C42.6851 43.7998 42.8667 43.7715 43.1349 43.711C43.2718 43.6841 43.3826 43.6153 43.4699 43.5059C43.5573 43.3957 43.5993 43.2663 43.5993 43.1239C43.5993 42.9105 43.5339 42.748 43.3929 42.6338C43.2601 42.5216 43.0022 42.4624 42.6266 42.4624H41.7227V43.7998ZM39.6722 47.7389V41.1257H43.0827C43.7148 41.1257 44.1991 41.1794 44.5348 41.2868C44.8684 41.3942 45.1367 41.5965 45.343 41.887C45.5494 42.1823 45.6498 42.5395 45.6498 42.9607C45.6498 43.3248 45.5693 43.6435 45.4166 43.9085C45.2557 44.1756 45.0424 44.3903 44.768 44.5562C44.5932 44.6622 44.3518 44.7496 44.045 44.8185C44.2899 44.9004 44.4674 44.9823 44.5802 45.0635C44.6551 45.1186 44.7645 45.2342 44.9069 45.4118C45.0493 45.5935 45.1449 45.7291 45.1938 45.8248L46.1877 47.7389H43.8792L42.7793 45.7174C42.6431 45.4538 42.5179 45.2865 42.4106 45.2074C42.2593 45.1034 42.0914 45.0532 41.9036 45.0532H41.7227V47.7389H39.6722ZM29.7379 41.1257H35.2141V42.5395H31.7884V43.5898H34.9623V44.9375H31.7884V46.2357H35.311V47.7389H29.7379V41.1257ZM19.3723 41.1257H25.5879V42.7598H23.5023V47.7389H21.4614V42.7598H19.3723V41.1257ZM8.92138 41.1257H10.833L13.3197 44.7813V41.1257H15.2464V47.7389H13.3197L10.8467 44.1019V47.7389H8.92138V41.1257ZM2.163 41.1257H4.21363V47.7393H2.163V41.1257Z" fill="#00A9B2"/>
<path d="M7.47439 53.6603V69.2516H4.35828V53.6603H7.47439ZM11.3508 53.6603V56.2624H0.556831V53.6603H11.3508ZM17.2082 63.5655L20.2065 53.6603H23.569L19.2856 66.1997C19.1143 66.6352 18.9251 67.0528 18.7181 67.4526C18.5182 67.8452 18.2791 68.195 18.0006 68.502C17.7222 68.809 17.3867 69.0481 16.9941 69.2195C16.6014 69.3908 16.1338 69.4765 15.5913 69.4765C15.4628 69.4765 15.2986 69.4729 15.0987 69.4658C14.9059 69.4586 14.7489 69.4515 14.6275 69.4443L14.574 66.8422C14.6454 66.8565 14.7632 66.8672 14.9274 66.8743C15.0916 66.8815 15.2058 66.8851 15.27 66.8851C15.6056 66.8851 15.859 66.8279 16.0303 66.7137C16.2088 66.5924 16.3444 66.421 16.4372 66.1997C16.5372 65.9784 16.6228 65.7179 16.6942 65.418L17.2082 63.5655ZM15.7519 53.6603L18.2898 61.1882L19.2321 64.904L16.9084 64.9361L12.4002 53.6603H15.7519ZM30.5615 63.7582H27.3704V61.1561H30.5615C31.0041 61.1561 31.3646 61.0562 31.643 60.8563C31.9286 60.6564 32.1356 60.3816 32.2641 60.0317C32.3926 59.6748 32.4568 59.275 32.4568 58.8324C32.4568 58.3827 32.389 57.965 32.2534 57.5795C32.1249 57.1869 31.9214 56.8692 31.643 56.6265C31.3717 56.3838 31.0112 56.2624 30.5615 56.2624H28.377V69.2516H25.2502V53.6603H30.5615C31.6109 53.6603 32.5139 53.8816 33.2707 54.3242C34.0274 54.7668 34.6056 55.3772 35.0054 56.1553C35.4123 56.9263 35.6158 57.8116 35.6158 58.811C35.6158 59.8176 35.4123 60.6921 35.0054 61.4345C34.6056 62.1698 34.0274 62.7409 33.2707 63.1479C32.5139 63.5548 31.6109 63.7582 30.5615 63.7582ZM40.6487 63.5227L45.521 53.6603H48.4979V69.2516H45.4674V59.507L40.638 69.2516H37.6075V53.6603H40.6487V63.5227ZM56.1329 61.7879H54.0662V60.0425H55.6617C56.0472 60.0425 56.3577 59.9568 56.5933 59.7855C56.8289 59.6141 57.0002 59.3714 57.1073 59.0573C57.2215 58.7432 57.2787 58.3755 57.2787 57.9543C57.2787 57.6045 57.2144 57.2869 57.0859 57.0013C56.9574 56.7157 56.7575 56.4873 56.4862 56.316C56.2221 56.1375 55.8866 56.0483 55.4797 56.0483C55.1656 56.0483 54.8836 56.1232 54.6337 56.2731C54.3839 56.4159 54.184 56.6265 54.034 56.9049C53.8913 57.1762 53.8199 57.501 53.8199 57.8794H50.7038C50.7038 57.1869 50.8287 56.5694 51.0786 56.0268C51.3356 55.4843 51.6854 55.0203 52.128 54.6348C52.5706 54.2493 53.0774 53.9566 53.6485 53.7567C54.2268 53.5568 54.8336 53.4569 55.469 53.4569C56.2185 53.4569 56.8932 53.5532 57.4928 53.746C58.0996 53.9316 58.6172 54.21 59.0455 54.5812C59.481 54.9524 59.813 55.4165 60.0414 55.9733C60.277 56.523 60.3948 57.1619 60.3948 57.8901C60.3948 58.4255 60.2913 58.9288 60.0842 59.4C59.8843 59.8711 59.5916 60.2852 59.2062 60.6421C58.8278 60.9991 58.378 61.281 57.8569 61.4881C57.3429 61.688 56.7682 61.7879 56.1329 61.7879ZM54.0662 60.8349H56.1329C56.8325 60.8349 57.4536 60.9241 57.9961 61.1026C58.5458 61.281 59.0134 61.5416 59.3989 61.8843C59.7915 62.2269 60.0878 62.6517 60.2877 63.1586C60.4947 63.6583 60.5982 64.233 60.5982 64.8826C60.5982 65.6108 60.4697 66.2604 60.2127 66.8315C59.9629 67.3955 59.6095 67.8738 59.1526 68.2664C58.6957 68.6591 58.1532 68.9553 57.5249 69.1552C56.9039 69.3551 56.2185 69.455 55.469 69.455C54.8693 69.455 54.2768 69.3694 53.6914 69.198C53.106 69.0196 52.5741 68.7483 52.0958 68.3842C51.6175 68.0201 51.2356 67.5525 50.9501 66.9814C50.6645 66.4103 50.5217 65.725 50.5217 64.9254H53.6593C53.6593 65.2824 53.7342 65.6108 53.8841 65.9106C54.0412 66.2104 54.2554 66.446 54.5266 66.6173C54.805 66.7887 55.1227 66.8743 55.4797 66.8743C55.9009 66.8743 56.2578 66.7851 56.5505 66.6066C56.8503 66.4282 57.0788 66.1854 57.2358 65.8785C57.3929 65.5644 57.4714 65.2181 57.4714 64.8398C57.4714 64.4257 57.4321 64.0759 57.3536 63.7904C57.2751 63.4977 57.1573 63.2621 57.0002 63.0836C56.8503 62.898 56.6611 62.7624 56.4327 62.6767C56.2114 62.591 55.9508 62.5482 55.651 62.5482H54.0662V60.8349ZM63.9928 53.6603H66.7448L69.9252 64.3258L73.0948 53.6603H75.5256L71.0924 69.2516H68.7472L63.9928 53.6603ZM62.8791 53.6603H65.5026L65.9095 63.9403V69.2516H62.8791V53.6603ZM74.3263 53.6603H76.9605V69.2516H73.9408V63.9403L74.3263 53.6603Z" fill="#00325F"/>
</svg>
