<svg width="164" height="76" viewBox="0 0 164 76" fill="none" xmlns="http://www.w3.org/2000/svg">
<path d="M12.9021 30.4584V33.0808H17.2027V15.7046H12.5568V23.6283C12.5568 25.5563 12.4378 26.8744 12.2012 27.5895C11.9666 28.3061 11.5271 28.876 10.8887 29.311C10.251 29.7453 9.52877 29.9601 8.72396 29.9601C8.09524 29.9601 7.5587 29.8107 7.11227 29.5072C6.66446 29.205 6.3446 28.7789 6.14511 28.2303C5.947 27.6866 5.84795 26.4786 5.84795 24.6147V15.7046H1.2041V26.5192C1.2041 27.8497 1.2894 28.8698 1.45862 29.5863C1.63127 30.2973 1.93463 30.9368 2.36936 31.5005C2.8041 32.0621 3.4452 32.5219 4.2961 32.8874C5.14425 33.2488 6.0832 33.4277 7.11227 33.4277C9.43797 33.4277 11.3661 32.44 12.9021 30.4584ZM19.267 15.7046H23.8393V22.1437H30.3934V15.7046H34.9623V33.0808H30.3934V25.8378H23.8393V33.0808H19.267V15.7046ZM45.9181 15.7046H36.6242V21.1388L41.2687 19.3498V33.1056H45.9181V19.3498L50.5674 21.1388V15.7046H45.9181ZM57.3444 19.9005C58.1994 19.1083 59.2175 18.7228 60.4563 18.7228C61.7021 18.7228 62.6885 19.1606 63.4727 20.0595C63.959 20.6267 64.2156 21.2764 64.3731 21.9654H56.0484C56.3201 21.1505 56.7411 20.4608 57.3444 19.9005ZM65.0053 27.3913C65.0053 27.3913 64.1991 29.1713 62.6163 29.9601C62.0261 30.254 61.2866 30.4013 60.4247 30.4013C58.8907 30.4013 57.7152 29.8293 56.8367 28.6516C56.2011 27.8091 55.8207 26.8613 55.6777 25.7827H68.7831C68.7831 25.7827 69.3361 21.0644 66.9657 18.0435C65.3678 16.0047 63.223 14.9075 60.4213 14.9075C57.5542 14.9075 55.2457 15.9056 53.5569 17.8734C52.0092 19.6706 51.2195 21.9207 51.2195 24.561C51.2195 27.1297 52.0092 29.353 53.5569 31.1763C55.267 33.193 57.5796 34.2165 60.4213 34.2165C62.4202 34.2165 64.1791 33.6679 65.6491 32.5928C68.3353 30.6229 69.3815 27.3913 69.3815 27.3913H65.0053ZM81.5631 28.4823C80.8601 29.3413 79.9783 29.7708 78.9224 29.7708C77.819 29.7708 76.8849 29.3027 76.1172 28.368C75.3509 27.4319 74.9664 25.9858 74.9664 24.0276C74.9664 22.3233 75.3323 21.0328 76.0684 20.1634C76.8044 19.2927 77.7248 18.8618 78.8419 18.8618C79.9095 18.8618 80.8051 19.3017 81.5273 20.1889C82.2517 21.0747 82.6156 22.4307 82.6156 24.2575C82.6156 26.2157 82.2634 27.6212 81.5631 28.4823ZM85.182 17.6201C83.7843 16.0419 82.0859 15.2496 80.0842 15.2496C78.932 15.2496 77.8857 15.5298 76.9433 16.0866C76.003 16.6455 75.2553 17.3572 74.705 18.2224V15.6908H70.4395V39.535H75.0118V30.8597C75.8668 31.7806 76.6785 32.4283 77.4531 32.8069C78.2276 33.1861 79.0964 33.3775 80.0491 33.3775C82.0508 33.3775 83.7554 32.5742 85.1655 30.9684C86.5709 29.3612 87.2746 27.1112 87.2746 24.2155C87.2746 21.3969 86.5777 19.197 85.182 17.6201ZM115.731 26.7725C115.621 23.4487 120.885 21.7541 124.523 23.627V29.8575C120.505 31.5321 115.94 30.0488 115.731 26.7725ZM124.523 33.0808H129.657V24.5445C129.657 21.7307 129.834 19.8867 128.663 18.0682C127.487 16.2477 125.154 15.5298 123.508 15.5298H114.104C113.222 15.5648 113.432 14.5063 113.502 14.2936C115.731 5.87974 117.529 3.4046 120.567 3.65308C121.875 3.82928 122.685 3.86439 123.288 4.60776C123.784 5.20865 123.962 5.28023 124.914 3.82928C125.51 2.84088 125.973 2.06241 126.327 1.46221C126.644 0.896424 127.46 0.15512 126.256 0.012642C111.805 -0.306042 111.597 5.42133 106.651 14.8236C106.121 15.7073 105.552 15.6722 103.895 15.6722H99.0537C92.5182 15.6722 89.127 20.798 88.7404 23.6621C88.4219 25.3918 88.2438 26.8765 89.0919 28.717C89.7619 30.0943 91.3874 31.9685 93.7908 33.0285C94.4291 33.2756 94.8164 32.8172 94.8501 32.7821C95.56 32.1427 97.7488 30.2003 98.3851 29.7054C98.7724 29.3509 98.3115 29.1396 98.0295 29.1059C93.9683 28.6096 92.4831 27.5138 91.7781 24.8246C91.5655 22.8127 92.5182 18.3236 99.7966 18.2513C102.73 18.3236 105.095 17.9712 104 20.5847C100.044 30.413 99.1239 32.217 94.9911 40.1676C92.4831 43.8452 89.3774 44.3766 84.285 42.7832C82.9643 42.3688 82.5523 43.2849 82.3707 43.6786C82.0997 44.2596 81.625 45.3264 81.4469 45.7043C81.1635 46.2811 81.3918 46.4807 81.8025 46.4773C88.9048 46.405 95.9438 45.0463 101.349 38.8956C106.402 32.4262 107.568 27.2302 110.888 20.6556C111.419 19.4896 112.2 18.4289 113.547 18.4289H121.52C124.073 18.4289 124.523 19.4896 124.523 20.8682C122.685 20.3032 121.132 20.0533 118.946 20.3032C114.244 20.798 111.275 22.7053 111.067 26.9487C111.1 30.1314 114.174 33.4181 119.576 33.3107C121.82 33.416 123.33 33.1008 124.523 31.8591V33.0808ZM136.779 33.0808V25.601C137.442 25.601 137.945 25.7469 138.283 26.0326C138.617 26.321 139.02 26.9652 139.479 27.9736L141.506 33.0808H146.362L144.093 28.1932C144.028 28.0727 143.969 27.9598 143.916 27.8532C142.926 25.749 141.715 24.5004 140.282 24.0998C141.277 23.7323 142.032 22.7508 142.563 21.1635C142.95 19.9845 143.312 19.2762 143.643 19.036C143.979 18.8095 144.746 18.6939 145.943 18.6939L145.926 15.6523C145.074 15.6 144.473 15.5718 144.132 15.5718C143.008 15.5718 142.106 15.812 141.416 16.2883C140.728 16.7666 140.093 17.8549 139.511 19.5584C139.068 20.8366 138.691 21.6639 138.38 22.0446C138.067 22.4238 137.532 22.6572 136.779 22.7439V15.7046H132.207V33.0808H136.779ZM162.525 20.8834L158.042 21.6736C157.889 20.7829 157.54 20.1152 157.002 19.6658C156.462 19.2143 155.762 18.9892 154.9 18.9892C153.756 18.9892 152.842 19.3836 152.161 20.1724C151.477 20.9625 151.137 22.2827 151.137 24.1315C151.137 26.1937 151.48 27.6467 152.171 28.4905C152.863 29.3426 153.791 29.7673 154.951 29.7673C155.82 29.7673 156.533 29.5154 157.086 29.0157C157.641 28.5139 158.031 27.6501 158.258 26.4249L162.744 27.1717C162.28 29.2621 161.386 30.8376 160.065 31.9066C158.748 32.9748 156.976 33.5055 154.757 33.5055C152.235 33.5055 150.226 32.7064 148.726 31.1075C147.227 29.5072 146.476 27.2908 146.476 24.4619C146.476 21.5985 147.23 19.3684 148.733 17.7729C150.24 16.1775 152.277 15.3804 154.84 15.3804C156.944 15.3804 158.61 15.8333 159.852 16.7412C161.092 17.647 161.984 19.0264 162.525 20.8834ZM68.5547 41.1257H70.8082L71.9803 43.1603L73.1174 41.1257H75.3509L73.2914 44.3263L75.5449 47.7389H73.2433L71.9384 45.6148L70.6273 47.7389H68.3456L70.6307 44.2933L68.5547 41.1257ZM62.2221 45.2156L61.4992 42.8382L60.7769 45.2156H62.2221ZM62.6548 46.6521H60.3408L60.0106 47.7389H57.925L60.4082 41.1257H62.6465L65.1229 47.7389H62.985L62.6548 46.6521ZM50.0729 41.1257H55.1267V42.5498H52.1234V43.6958H54.694V45.0346H52.1234V47.7389H50.0729V41.1257ZM41.7227 43.7998H42.5915C42.6851 43.7998 42.8667 43.7715 43.1349 43.711C43.2718 43.6841 43.3826 43.6153 43.4699 43.5059C43.5573 43.3957 43.5993 43.2663 43.5993 43.1239C43.5993 42.9105 43.5339 42.748 43.3929 42.6338C43.2601 42.5216 43.0022 42.4624 42.6266 42.4624H41.7227V43.7998ZM39.6722 47.7389V41.1257H43.0827C43.7148 41.1257 44.1991 41.1794 44.5348 41.2868C44.8684 41.3942 45.1367 41.5965 45.343 41.887C45.5494 42.1823 45.6498 42.5395 45.6498 42.9607C45.6498 43.3248 45.5693 43.6435 45.4166 43.9085C45.2557 44.1756 45.0424 44.3903 44.768 44.5562C44.5932 44.6622 44.3518 44.7496 44.045 44.8185C44.2899 44.9004 44.4674 44.9823 44.5802 45.0635C44.6551 45.1186 44.7645 45.2342 44.9069 45.4118C45.0493 45.5935 45.1449 45.7291 45.1938 45.8248L46.1877 47.7389H43.8792L42.7793 45.7174C42.6431 45.4538 42.5179 45.2865 42.4106 45.2074C42.2593 45.1034 42.0914 45.0532 41.9036 45.0532H41.7227V47.7389H39.6722ZM29.7379 41.1257H35.2141V42.5395H31.7884V43.5898H34.9623V44.9375H31.7884V46.2357H35.311V47.7389H29.7379V41.1257ZM19.3723 41.1257H25.5879V42.7598H23.5023V47.7389H21.4614V42.7598H19.3723V41.1257ZM8.92138 41.1257H10.833L13.3197 44.7813V41.1257H15.2464V47.7389H13.3197L10.8467 44.1019V47.7389H8.92138V41.1257ZM2.163 41.1257H4.21363V47.7393H2.163V41.1257Z" fill="#00A9B2"/>
<path d="M9.90517 59.9786V62.57H3.51232V59.9786H9.90517ZM4.40111 53.6607V69.252H1.26358V53.6607H4.40111ZM12.1753 53.6607V69.252H9.06992V53.6607H12.1753ZM23.676 66.6605V69.252H16.8977V66.6605H23.676ZM17.8721 53.6607V69.252H14.7346V53.6607H17.8721ZM22.7658 59.9786V62.495H16.8977V59.9786H22.7658ZM23.6546 53.6607V56.2628H16.8977V53.6607H23.6546ZM35.9906 66.6605V69.252H26.8029V66.6605H35.9906ZM27.6916 66.6605V73.0855H24.7469L24.5755 66.6605H27.6916ZM38.2607 66.6605L37.9823 73.0855H35.1125V66.6605H38.2607ZM34.3736 53.6607V56.2628H28.0771V53.6607H34.3736ZM36.6331 53.6607V69.252H33.517V53.6607H36.6331ZM27.7024 53.6607H30.8292L30.4437 60.0428C30.3866 61.0994 30.2902 62.031 30.1546 62.8377C30.0261 63.6372 29.8654 64.3368 29.6727 64.9365C29.4871 65.5362 29.28 66.0609 29.0516 66.5106C28.8232 66.9532 28.5804 67.3387 28.3234 67.6671C28.0664 67.9884 27.8023 68.2775 27.531 68.5345C27.2597 68.7915 26.992 69.0306 26.7279 69.252H25.0253V66.6605H25.6249C25.8034 66.4892 25.9819 66.2572 26.1604 65.9645C26.3388 65.6647 26.503 65.2685 26.6529 64.7759C26.8029 64.2833 26.9349 63.6515 27.0491 62.8805C27.1634 62.1095 27.2526 61.1636 27.3169 60.0428L27.7024 53.6607ZM45.1569 62.4522H41.9658L41.9551 60.182H44.675C45.1033 60.182 45.4531 60.1106 45.7244 59.9679C46.0028 59.8179 46.2063 59.6002 46.3348 59.3147C46.4704 59.022 46.5382 58.6686 46.5382 58.2545C46.5382 57.7762 46.4776 57.3943 46.3562 57.1087C46.2348 56.8161 46.0385 56.6019 45.7672 56.4663C45.496 56.3306 45.1426 56.2628 44.7071 56.2628H43.0366V69.252H39.8991V53.6607H44.7071C45.4853 53.6607 46.1813 53.7463 46.7952 53.9177C47.4092 54.089 47.9303 54.3496 48.3587 54.6994C48.787 55.0492 49.1118 55.4918 49.3331 56.0272C49.5615 56.5626 49.6758 57.1944 49.6758 57.9226C49.6758 58.5651 49.5473 59.1576 49.2903 59.7002C49.0333 60.2427 48.6299 60.6853 48.0802 61.028C47.5377 61.3706 46.8274 61.5634 45.9493 61.6062L45.1569 62.4522ZM45.0498 69.252H41.077L42.3299 66.6605H45.0498C45.4638 66.6605 45.7994 66.5713 46.0564 66.3928C46.3134 66.2144 46.499 65.9752 46.6132 65.6754C46.7274 65.3684 46.7845 65.0186 46.7845 64.626C46.7845 64.1834 46.731 63.7979 46.6239 63.4695C46.524 63.1411 46.3562 62.8912 46.1206 62.7199C45.885 62.5414 45.5674 62.4522 45.1676 62.4522H42.4691L42.4905 60.182H45.7672L46.5061 61.0815C47.3414 61.053 48.0088 61.2136 48.5086 61.5634C49.0083 61.9061 49.3652 62.3558 49.5794 62.9126C49.8007 63.4623 49.9114 64.0477 49.9114 64.6688C49.9114 65.6682 49.7222 66.5106 49.3438 67.196C48.9726 67.8742 48.4265 68.3882 47.7054 68.738C46.9844 69.0806 46.0992 69.252 45.0498 69.252ZM55.1477 63.523L60.02 53.6607H62.9969V69.252H59.9664V59.5074L55.137 69.252H52.1066V53.6607H55.1477V63.523ZM69.9252 62.8912L64.9779 53.6607H68.865L71.4136 59.9357H73.823L73.3732 62.8912H69.9252ZM71.3708 62.3665L68.6937 69.252H64.8066L68.8436 60.4712L71.3708 62.3665ZM75.8147 53.6607V69.252H72.6986V53.6607H75.8147ZM83.4069 53.6607L78.556 62.8912H75.1401L74.6903 59.9357H77.0676L79.5519 53.6607H83.4069ZM79.7018 69.252L77.1104 62.3665L79.6376 60.4712L83.5889 69.252H79.7018ZM87.9793 63.523L92.8516 53.6607H95.8285V69.252H92.7981V59.5074L87.9686 69.252H84.9382V53.6607H87.9793V63.523ZM99.4586 53.6607H102.211L105.391 64.3261L108.561 53.6607H110.991L106.558 69.252H104.213L99.4586 53.6607ZM98.345 53.6607H100.968L101.375 63.9406V69.252H98.345V53.6607ZM109.792 53.6607H112.426V69.252H109.407V63.9406L109.792 53.6607ZM125.94 60.2463V62.8484C125.94 63.9478 125.805 64.9115 125.533 65.7396C125.269 66.5606 124.891 67.2495 124.398 67.8063C123.913 68.356 123.324 68.7701 122.631 69.0485C121.946 69.3269 121.186 69.4661 120.351 69.4661C119.515 69.4661 118.751 69.3269 118.059 69.0485C117.374 68.7701 116.781 68.356 116.281 67.8063C115.789 67.2495 115.407 66.5606 115.136 65.7396C114.864 64.9115 114.729 63.9478 114.729 62.8484V60.2463C114.729 59.1183 114.861 58.1332 115.125 57.2908C115.389 56.4413 115.771 55.7345 116.271 55.1705C116.77 54.5994 117.363 54.1711 118.048 53.8856C118.734 53.5929 119.494 53.4465 120.329 53.4465C121.164 53.4465 121.925 53.5929 122.61 53.8856C123.295 54.1711 123.888 54.5994 124.388 55.1705C124.887 55.7345 125.269 56.4413 125.533 57.2908C125.805 58.1332 125.94 59.1183 125.94 60.2463ZM122.824 62.8484V60.2249C122.824 59.4824 122.771 58.8506 122.663 58.3295C122.556 57.8012 122.396 57.3693 122.182 57.0338C121.967 56.6983 121.707 56.452 121.4 56.2949C121.093 56.1379 120.736 56.0593 120.329 56.0593C119.922 56.0593 119.562 56.1379 119.248 56.2949C118.941 56.452 118.68 56.6983 118.466 57.0338C118.259 57.3693 118.102 57.8012 117.995 58.3295C117.895 58.8506 117.845 59.4824 117.845 60.2249V62.8484C117.845 63.5623 117.898 64.1727 118.005 64.6795C118.112 65.1864 118.273 65.6004 118.487 65.9217C118.701 66.2429 118.962 66.4821 119.269 66.6391C119.583 66.789 119.944 66.864 120.351 66.864C120.75 66.864 121.104 66.789 121.411 66.6391C121.725 66.4821 121.985 66.2429 122.192 65.9217C122.399 65.6004 122.556 65.1864 122.663 64.6795C122.771 64.1727 122.824 63.5623 122.824 62.8484ZM135.653 64.0584H138.769C138.726 65.2292 138.49 66.2179 138.062 67.0246C137.634 67.8242 137.023 68.431 136.231 68.845C135.446 69.2591 134.496 69.4661 133.382 69.4661C132.519 69.4661 131.751 69.3233 131.08 69.0378C130.409 68.7451 129.838 68.3168 129.367 67.7528C128.896 67.1888 128.539 66.4928 128.296 65.6647C128.06 64.8294 127.943 63.8693 127.943 62.7841V60.1392C127.943 59.0541 128.068 58.0939 128.317 57.2587C128.574 56.4234 128.939 55.7238 129.41 55.1598C129.888 54.5887 130.463 54.1604 131.134 53.8748C131.812 53.5822 132.576 53.4358 133.425 53.4358C134.56 53.4358 135.51 53.65 136.274 54.0783C137.038 54.5066 137.627 55.1313 138.041 55.9523C138.462 56.7661 138.715 57.762 138.801 58.9399H135.674C135.653 58.1974 135.567 57.6156 135.417 57.1944C135.274 56.7661 135.046 56.4663 134.732 56.2949C134.418 56.1164 133.982 56.0272 133.425 56.0272C133.011 56.0272 132.654 56.1022 132.354 56.2521C132.055 56.3949 131.808 56.6269 131.616 56.9481C131.423 57.2694 131.28 57.6906 131.187 58.2117C131.102 58.7328 131.059 59.3682 131.059 60.1178V62.7841C131.059 63.5194 131.098 64.1477 131.177 64.6688C131.255 65.1828 131.38 65.604 131.551 65.9324C131.723 66.2608 131.955 66.4999 132.247 66.6498C132.547 66.7998 132.926 66.8747 133.382 66.8747C133.911 66.8747 134.336 66.7962 134.657 66.6391C134.985 66.4821 135.228 66.2001 135.385 65.7932C135.542 65.3863 135.631 64.808 135.653 64.0584ZM146.618 53.6607V69.252H143.502V53.6607H146.618ZM150.494 53.6607V56.2628H139.7V53.6607H150.494ZM154.585 59.2718H157.551C158.593 59.2718 159.496 59.4753 160.26 59.8822C161.024 60.2891 161.613 60.8638 162.027 61.6062C162.448 62.3487 162.659 63.216 162.659 64.2083C162.659 64.9579 162.538 65.6397 162.295 66.2536C162.059 66.8676 161.717 67.3994 161.267 67.8492C160.824 68.2989 160.289 68.6451 159.661 68.8879C159.04 69.1306 158.336 69.252 157.551 69.252H152.475V53.6607H155.613V66.6605H157.551C157.987 66.6605 158.351 66.5463 158.643 66.3179C158.936 66.0894 159.157 65.7896 159.307 65.4184C159.457 65.0472 159.532 64.6367 159.532 64.1869C159.532 63.7515 159.457 63.3588 159.307 63.009C159.157 62.6592 158.936 62.3844 158.643 62.1845C158.351 61.9775 157.987 61.8739 157.551 61.8739H154.585V59.2718Z" fill="#00325F"/>
</svg>
